<?xml version="1.0" encoding="utf-8"?>
<!-- Generator: Adobe Illustrator 24.1.0, SVG Export Plug-In . SVG Version: 6.00 Build 0)  -->
<svg version="1.1" id="Слой_1" xmlns="http://www.w3.org/2000/svg" xmlns:xlink="http://www.w3.org/1999/xlink" x="0px" y="0px"
	 viewBox="0 0 214 298" style="enable-background:new 0 0 214 298;" xml:space="preserve">
<style type="text/css">
	.st0{fill:#FFFFFF;}
	.st1{fill-rule:evenodd;clip-rule:evenodd;fill:#2E779A;}
	.st2{fill-rule:evenodd;clip-rule:evenodd;fill:#B8B7B7;}
	.st3{fill-rule:evenodd;clip-rule:evenodd;fill:#FFFFFF;}
</style>
<g>
	<polygon class="st0" points="214,297.8 -0.1,297.8 -0.1,0.4 214,0.4 214,297.8 	"/>
	<path class="st1" d="M214,87.5v210.2H-0.1V116.4c19.5,3,40.2,4.6,61.8,4.6C122.5,121.1,177.2,108,214,87.5L214,87.5z"/>
	<path class="st2" d="M214,48.1v21c-33.3,27.6-118.1,47.2-161.2,47.2c-43.1,0-36.1-1.4-52.9-4v-2.4c15.4,3.3,33.3,4.1,52.2,3.2
		C99.4,111,145.8,97,184.4,71.5C195.7,64.1,205.6,56.1,214,48.1L214,48.1z"/>
	<path class="st2" d="M214,0.4v38.8c-8,10.4-19.1,20.7-32.7,30c-38,26.3-86.1,40.9-133.3,42.9c-17.3,0.7-34-0.2-48.1-3.2V0.4H214
		L214,0.4z"/>
	<path class="st3" d="M190.5,143c-0.5,0.9-1.5,2.3-3,2.3c-1.3,0-1.5-1.1-1.5-1.7V143l-0.1-0.1c-0.2,0.4-0.7,1-1.8,1.6
		c0.4,1.2,1.3,1.9,2.8,1.9c1.8,0,3.4-1.6,4.4-2.9L190.5,143L190.5,143z M195,161.3v-0.6h-0.5c-1.5,0-1.1-1.8-1.1-3.4v-8.7v-3
		l-0.7,0.3c-9,11.7-3.8,4.2-11,13.6h-0.1c0-0.9,0.1-3,0.1-4v-5.8c0-1.3,0-3,1.2-3h0.5v-0.6h-0.7c-0.3,0-0.6,0.1-1,0.1h-0.9H180
		c-0.3,0-0.6-0.1-0.9-0.1h-0.7v0.6h0.5c1.3,0,1.1,1.6,1.1,3v8.2v3.9l0.8-0.1c4.1-4.4,9.1-10.1,11-13.2h0.1c-0.4,1.6-0.4,2.5-0.4,3.9
		v5c0,1.7,0,3.5-1.2,3.5H190v0.6h0.7h0.7c0.4-0.1,0.7-0.1,1.1-0.1c0.7,0,0.8,0.1,1.7,0.1H195L195,161.3z M176.9,161.3v-0.6h-0.5
		c-1.5,0-1.2-1.8-1.2-3.4v-8.7v-3l-0.7,0.3c-9,11.7-3.8,4.2-11.1,13.6h-0.1c0.1-0.9,0.3-3,0.3-4v-5.8c0-1.3-0.1-3,1.2-3h0.4v-0.6
		h-0.7c-0.2,0-0.6,0.1-1,0.1h-0.7h-1c-0.2,0-0.6-0.1-0.8-0.1h-0.7v0.6h0.5c1.3,0,1.2,1.6,1.2,3v8.2c0,1.4-0.1,2.4-0.1,3.9l0.8-0.1
		c4.2-4.4,9.1-10.1,11-13.2h0.1c-0.4,1.6-0.3,2.5-0.3,3.9v5c0,1.7-0.1,3.5-1.2,3.5h-0.5v0.6h0.9h0.6c0.4-0.1,0.7-0.1,1.1-0.1
		c0.7,0,0.8,0.1,1.7,0.1H176.9L176.9,161.3z M153.5,145.9v0.6h0.5c0.4,0,0.5,0.4,0.5,0.6c0,0.5-0.8,1.5-5.7,6.1
		c4.7,4.7,5.9,8.2,8.6,8.2c0.6,0,1.1,0,1.6-0.2v-0.5h-1.2c-0.9,0-1.6-2.1-4.2-5.2c-0.7-1-2.3-2.3-3.3-2.7l4-3.8
		c1.4-1.5,2.4-2.5,3.8-2.5h0.4v-0.6h-0.6c-0.2,0-0.5,0.1-0.7,0.1c-0.2,0.1-0.6,0-0.8,0h-0.9c-0.4,0-0.7-0.1-1.1-0.1H153.5
		L153.5,145.9z M144.9,161.3h0.9c0.2,0,0.5,0,0.7-0.1h1h1c0.2,0.1,0.5,0.1,0.7,0.1h0.9v-0.6h-0.5c-1.5,0-1.2-2.7-1.2-4.1v-6.7
		c0-1.7,0-3.4,1.2-3.4h0.5v-0.6h-0.7c-0.4,0-0.7,0-1,0.1h-0.8h-0.9c-0.3-0.1-0.6-0.1-1-0.1h-0.7v0.6h0.5c1.3,0,1.2,2.2,1.2,3.4v6.7
		c0,1.5,0.1,4.1-1.2,4.1h-0.5V161.3L144.9,161.3z M142.7,149.9v-0.4c0-1,0.1-2.8,0.1-3.6c-0.4,0.1-0.6,0.1-1,0.1
		c-2.6,0-2.2-0.5-4.5-0.5c-5,0-8.4,3.6-8.4,8c0,4.9,4,8.1,8.6,8.1c4.2,0,4.9-1.6,5.8-3.6h-0.7c-0.9,1.6-2.6,2.8-5.1,2.8
		c-3.2,0-6.6-2.7-6.6-7.2c0-4.6,2.9-7.3,5.8-7.3c1.5,0,5.1-0.1,5.1,3.5H142.7L142.7,149.9z M120.2,153.4c0.5-0.1,0.9-0.1,1.2-0.1
		c2.8,0,4.5,1.4,4.5,3.8c0,1.8-0.7,3.8-3.4,3.8c-2.5,0-2.3-1.2-2.3-3.8V153.4L120.2,153.4z M120.2,150.7c0-1.5,0.1-3.3,0.1-4.2h1.6
		c1.6,0,2.7,1.8,2.7,3c0,1.9-1.8,3.4-4.4,3.2V150.7L120.2,150.7z M118.5,156.7c0,1.8-0.1,4-1.2,4h-0.5v0.6h0.9
		c1.5,0,1.3-0.2,2.9-0.1c1,0.1,1.5,0.2,2.4,0.2c3.2,0,4.7-2.2,4.7-4.4c0-3.4-3.4-4.1-4.6-4.1h-0.5v-0.1c2.2-0.4,3.6-1.8,3.6-3.5
		c0-1.3-0.9-3.5-3.9-3.5c-2.1,0-2.3,0.2-3.4,0.2c-1,0-1-0.2-2.2-0.1v0.6h0.6c1.3,0,1.1,2.1,1.1,3.4V156.7L118.5,156.7z M101.8,152.9
		c0-5.5,3.4-6.7,5.5-6.7c3.2,0,5.8,3.3,5.8,7.8c0,4.1-1.9,6.9-5.2,6.9C103.7,160.9,101.8,156.6,101.8,152.9L101.8,152.9z
		 M99.7,153.4c0,3.7,2.6,8.2,7.5,8.2c4.4,0,7.9-3.2,7.9-8.1c0-3.9-2.8-8-7.4-8C102.8,145.5,99.7,149,99.7,153.4L99.7,153.4z
		 M92.2,145.8c-0.4,1.7-0.7,2.8-2.4,7.5c-1.7,5.1-2.4,7.4-4.1,7.4h-0.5v0.6h0.6c0.2,0,0.6,0,1-0.1h1h1c0.4,0.1,0.6,0.1,0.8,0.1h0.9
		v-0.6h-0.5c-1,0-0.9-0.6-0.9-1.1c0-1.1,0.5-2.1,1.8-6.2c0.8-2.4,1.2-3.6,1.5-5.1h0.1c0.3,1.9,2,6.3,2.3,7.5
		c1.3,3.5,1.8,4.9,0.1,4.9h-0.4v0.6h0.7c0.4,0,0.6,0,0.9-0.1h1.1h1.1c0.4,0.1,0.7,0.1,1.1,0.1h0.6v-0.6h-0.4c-1.2,0-1.9-1.9-2.4-3.4
		c-1.3-3.6-2.1-5.1-4.1-11.8L92.2,145.8L92.2,145.8z M76.4,148c0,0.9,0.2,1.7,0.8,4.1c0.5,2.2,1.7,5.4,2.8,8.2
		c-1.5,0.1-2.3,0.1-4.1,0.1c-1.4,0-2.3,0-3.6-0.1c1.1-2.9,3.8-10.7,3.9-12.4H76.4L76.4,148z M69.2,164.7c0.3-0.8,0.9-2.3,1.4-2.8
		c0.6-0.6,1.6-0.6,2.6-0.6h7.8c0.7,0,1.9,0,1.9,1.8c0,0.2-0.1,1.2-0.3,1.6h0.9c0.6-2.4,0.8-3.4,1-4.6c-0.6,0.1-1.5,0.1-2.1,0.1
		c-0.5,0-0.5-0.1-2.2-4.6c-0.7-2.3-1.7-4.7-2.9-10.2l-1.2,0.1c-0.5,2.7-2.7,8.9-3.4,10.8c-1.2,3.4-1.3,4-1.9,4
		c-0.4,0-1.2-0.1-1.5-0.2c-0.1,1.6-0.4,3-0.7,4.6H69.2L69.2,164.7z M65.3,161.3v-0.6h-0.7c-1.3,0-1.2-2.1-1.2-3.9v-10.2
		c0.3,0,0.6-0.1,0.9-0.1c2.3,0,4.1,1.5,4.1,3.9c0,2.1-1.3,3.8-2.9,3.8c-0.2,0-0.6,0-1-0.1v0.6c0.4,0.1,0.7,0.1,1.1,0.1
		c2.2,0,4.6-1.7,4.6-4.4c0-2.4-1.5-4.5-4.8-4.5c-2.4,0-2,0.1-3.3,0.1c-0.6,0-1.1,0-2.1-0.1v0.6c1.8-0.1,1.7,1.2,1.7,3.6v6.8
		c0,1.6,0,3.8-1.2,3.8h-0.5v0.6h0.9c0.2,0,0.5,0,0.7-0.1h1h0.8c0.4,0.1,0.6,0.1,0.9,0.1H65.3L65.3,161.3z M49.5,157.4
		c0,1.3,0,3.3-1.1,3.3h-0.6v0.6h0.5c1,0,1.3-0.2,2.7-0.1c0.2,0,0.5,0,0.7,0.1c0.6,0,1.2,0,1.8,0.1h2.7c0.7,0,1.3-0.4,2.1-3.5h-0.8
		c-0.6,2.4-1.9,2.8-3.9,2.8c-1.6,0-2.3-0.4-2.3-3.3v-3.6l1.5-0.1h1.5c1.1,0,1.3,0.8,1.2,2.1h0.6c0-1.6,0.1-3.2,0.4-4.6h-0.6
		c-0.1,1.6-0.7,1.7-1.6,1.8h-1.5l-1.5-0.1v-2.4c0-1.1,0.1-2.2,0.1-3.4H54c1.7,0,1.8,0.7,1.8,1.4c0,0.2,0,0.7-0.1,1.2h0.7
		c0.4-1.3,0.6-2.6,0.9-3.8c-2,0.1-3,0.1-5,0.1c-1.6,0-2.7,0-4.5-0.1v0.6h0.5c1.3,0,1.2,2.1,1.2,3.4V157.4L49.5,157.4z M39.1,153.4
		c0.5-0.1,0.8-0.1,1.2-0.1c2.8,0,4.5,1.4,4.5,3.8c0,1.8-0.7,3.8-3.4,3.8c-2.6,0-2.3-1.2-2.3-3.8V153.4L39.1,153.4z M39.1,150.7
		c0-1.5,0.1-3.3,0.1-4.2h1.6c1.6,0,2.7,1.8,2.7,3c0,1.9-1.8,3.4-4.4,3.2V150.7L39.1,150.7z M37.3,156.7c0,1.8-0.1,4-1.2,4h-0.5v0.6
		h0.8c1.5,0,1.3-0.2,2.9-0.1c1,0.1,1.6,0.2,2.4,0.2c3.3,0,4.7-2.2,4.7-4.4c0-3.4-3.3-4.1-4.6-4.1h-0.5v-0.1c2.2-0.4,3.6-1.8,3.6-3.5
		c0-1.3-0.9-3.5-3.9-3.5c-2.1,0-2.3,0.2-3.4,0.2c-1,0-1-0.2-2.2-0.1v0.6h0.6c1.3,0,1.1,2.1,1.1,3.4V156.7L37.3,156.7z M33.5,149.9
		v-0.4c0-1,0.1-2.8,0.1-3.6c-0.4,0.1-0.6,0.1-1,0.1c-2.5,0-2.1-0.5-4.5-0.5c-5,0-8.4,3.6-8.4,8c0,4.9,4,8.1,8.6,8.1
		c4.2,0,4.9-1.6,5.8-3.6h-0.7c-0.9,1.6-2.5,2.8-5.1,2.8c-3.1,0-6.5-2.7-6.5-7.2c0-4.6,2.9-7.3,5.8-7.3c1.5,0,5.1-0.1,5.1,3.5H33.5
		L33.5,149.9z"/>
	<path class="st3" d="M189.7,163.9c-0.6,1.2-1.8,3-3.9,3c-1.7,0-1.9-1.5-1.9-2.1c0-0.4,0-0.6,0.1-1h-0.3c-0.2,0.4-1,1.2-2.3,1.9
		c0.5,1.6,1.7,2.5,3.5,2.5c2.3,0,4.4-2.1,5.6-3.8L189.7,163.9L189.7,163.9z M195.2,187.4v-0.7h-0.6c-1.8,0-1.6-2.3-1.6-4.4v-11.2
		c0-0.5,0-1.2,0.1-3.9l-1,0.1c-11.5,15.3-4.8,5.6-14.2,17.6h-0.1c0-1.2,0.2-4,0.2-5.1v-7.5c0-1.8-0.1-3.9,1.6-3.9h0.6v-0.8h-1
		c-0.5,0-0.8,0.1-1.2,0.1c-0.4,0.1-0.7,0.1-1.1,0.1c-0.4,0-0.7,0-1.1-0.1c-0.5,0-0.8-0.1-1.2-0.1h-1v0.8h0.7c1.6,0,1.5,2.1,1.5,3.9
		v10.5c0,1.8,0,3.2-0.1,5l1.1-0.2c5.3-5.5,11.7-12.8,14.2-17l0.1,0.1c-0.4,1.9-0.4,3.2-0.4,5.1v6.2c0,2.2,0,4.6-1.6,4.6h-0.6v0.7
		h1.1h1c0.4-0.1,0.9-0.1,1.3-0.1c0.8,0,1,0.1,2.1,0.1H195.2L195.2,187.4z M155.4,176.6c0-6.9,4.4-8.5,7-8.5c4,0,7.5,4.1,7.5,10.1
		c0,5.2-2.4,8.7-6.8,8.7C158,186.9,155.4,181.3,155.4,176.6L155.4,176.6z M152.9,177.2c0,5,3.2,10.7,9.6,10.7
		c5.6,0,10.1-4,10.1-10.4c0-5-3.5-10.2-9.5-10.2C156.8,167.3,152.9,171.6,152.9,177.2L152.9,177.2z M130.6,168.5h0.6
		c1.7,0,1.6,2.1,1.6,4.2v9.5c0,1.4,0,4.5-1.6,4.5h-0.6v0.7h1.1h1c0.4-0.1,0.8-0.1,1.2-0.1c0.4,0,0.7,0,1.1,0.1h1.1h1.1v-0.7h-0.6
		c-1.6,0-1.6-2.3-1.6-4.5v-4.5c1.6,0.1,4.2,0.2,6.2,0.2c1.8,0,4.5-0.1,6.2-0.2v4.5c0,2.2,0,4.5-1.6,4.5h-0.6v0.7h1.1h1
		c0.4-0.1,0.9-0.1,1.2-0.1c0.4,0,0.7,0,1.1,0.1h1.1h1.1v-0.7h-0.6c-1.7,0-1.6-3-1.6-4.5v-9.5c0-2.2-0.1-4.2,1.5-4.2h0.6v-0.8h-1
		c-0.4,0-0.7,0.1-1.1,0.1c-0.4,0.1-0.7,0.1-1.2,0.1c-0.2,0-0.6,0-1-0.1c-0.5,0-0.9-0.1-1.3-0.1h-0.9v0.8h0.6c1.6,0,1.6,2.1,1.6,4.2
		v3.8c-1.3,0.1-3.6,0.5-6.2,0.5c-2.7,0-4.8-0.4-6.2-0.5v-3.8c0-2.2,0-4.2,1.6-4.2h0.6v-0.8h-1c-0.4,0-0.9,0.1-1.2,0.1
		c-0.4,0.1-0.7,0.1-1.1,0.1c-0.4,0-0.7,0-1.2-0.1c-0.4,0-0.7-0.1-1.1-0.1h-1V168.5L130.6,168.5z M113,172.3c0.7-3.5,2.4-3.6,4.9-3.6
		h1.8v13.8c0,1.9,0,4.2-1.6,4.2h-0.6v0.8h1.1c0.4,0,0.7-0.1,1.1-0.1c0.4-0.1,0.9-0.1,1.2-0.1c0.4,0,0.7,0,1.1,0.1
		c0.4,0,0.9,0.1,1.3,0.1h0.9v-0.8h-0.6c-1.7,0-1.7-2.8-1.7-4.4v-13.7h2.1c1.9,0,4.5-0.4,3.9,3.6h0.9c0.5-2.9,0.6-4.4,0.6-5
		c-1.7,0.1-3.6,0.4-8.6,0.4c-1.3,0-4.2,0-7.5-0.4c-0.2,1.1-0.2,1.2-1,5H113L113,172.3z M110.2,172.9c0-0.2-0.1-0.4-0.1-0.6
		c0-1.2,0.1-3.5,0.2-4.6c-0.5,0.1-0.7,0.1-1.3,0.1c-3.2,0-2.7-0.5-5.7-0.5c-6.3,0-10.7,4.6-10.7,10.2c0,6.3,5.1,10.4,11,10.4
		c5.3,0,6.2-1.9,7.5-4.7h-1c-1.1,2.1-3.4,3.6-6.6,3.6c-4.1,0-8.5-3.4-8.5-9.2c0-5.8,3.8-9.2,7.5-9.2c1.8,0,6.4-0.2,6.6,4.5H110.2
		L110.2,172.9z M84.6,170.8c0.7,3,1.7,5,2.8,8.7c-0.6,0.1-1.2,0.1-1.8,0.1c-1.3,0-2.8,0-4-0.1c1.6-4.7,2.2-5.9,2.8-8.7H84.6
		L84.6,170.8z M84.4,167.3c-1.5,5.1-5.7,19.4-8.3,19.4h-0.6v0.7h1.1h0.9c0.5-0.1,0.8-0.1,1.3-0.1c0.4,0,0.8,0,1.2,0.1h1h1v-0.7h-0.8
		c-1.2,0-1.1-1-1.1-1.7c0-1.1,0.8-3.3,1.3-4.4c1.3,0.1,2.9,0.1,4.6,0.1c0.6,0,1.3,0,2-0.1c1,2.4,2.3,6.1,0.5,6.1h-0.7v0.7h0.7h1.2
		c0.5-0.1,1.1-0.1,1.6-0.1c0.5,0,0.9,0,1.2,0.1h1h1.1v-0.7h-0.7c-1.5,0-3.3-2.5-8.2-19.7L84.4,167.3L84.4,167.3z M64.4,167.5
		c-0.5,2.2-1,3.6-3.1,9.7c-2.2,6.5-3.2,9.5-5.2,9.5h-0.7v0.7h0.9h1.1c0.5-0.1,0.8-0.1,1.3-0.1c0.5,0,0.9,0,1.3,0.1H61h1.1v-0.7h-0.7
		c-1.2,0-1.1-0.9-1.1-1.5c0-1.5,0.7-2.7,2.4-7.9c1.1-3.2,1.5-4.7,1.8-6.5h0.1c0.4,2.4,2.5,8.1,3,9.7c1.7,4.5,2.3,6.2,0.1,6.2h-0.5
		v0.7h1h1.2c0.4-0.1,0.8-0.1,1.2-0.1c0.5,0,1,0,1.5,0.1h1.3h0.8v-0.7h-0.5c-1.6,0-2.4-2.5-3.2-4.4c-1.7-4.7-2.7-6.5-5.2-15
		L64.4,167.5L64.4,167.5z M45.2,177.2c0.6-0.1,1.1-0.1,1.7-0.1c3.6,0,5.6,2.4,5.6,5.7c0,2.8-2.2,4-4.5,4c-3.2,0-2.8-2.6-2.8-4.6
		V177.2L45.2,177.2z M43.1,182.1c0,2.2,0.1,4.8-2.2,4.6v0.7h1.2c0.8,0,2.1-0.1,2.7-0.1c1.1,0,2.1,0.4,3.6,0.4c3.5,0,6.6-2.2,6.6-5.6
		c0-2.9-1.7-5.7-7.2-5.7c-0.8,0-1.7,0-2.5,0.1v-1.6c0-1,0.1-2.1,0.2-5.9h3.4c0.9,0,2.4-0.1,2.4,1.8c0,0.2,0,0.8-0.2,1.7l1-0.1
		c0.5-1.7,0.8-3.3,1.1-4.7c-1.2,0.1-3.6,0.2-6.3,0.2c-2.6,0-4.9-0.1-5.9-0.2v0.8h0.7c1.7,0,1.5,2.7,1.5,5V182.1L43.1,182.1z
		 M22.4,176.6c0-6.9,4.4-8.5,7-8.5c4,0,7.5,4.1,7.5,10.1c0,5.2-2.4,8.7-6.8,8.7C24.9,186.9,22.4,181.3,22.4,176.6L22.4,176.6z
		 M19.8,177.2c0,5,3.3,10.7,9.7,10.7c5.6,0,10.1-4,10.1-10.4c0-5-3.5-10.2-9.5-10.2C23.8,167.3,19.8,171.6,19.8,177.2L19.8,177.2z"
		/>
	<path class="st3" d="M18.7,241.1v0.8c2-0.2,2,1.8,2,4v8.6c0,2,0,4.6-1.4,4.6h-0.6v0.8h1c0.4,0,0.6,0,1-0.2H22h0.8
		c0.4,0.2,0.8,0.2,1.2,0.2h1v-0.8h-0.6c-1.6,0-1.4-2.8-1.4-4.6v-12.2h11v11.8c0,2.4,0.2,5-1.4,5h-0.6v0.8h1c0.4,0,0.8,0,1.2-0.2h1h1
		c0.2,0.2,0.6,0.2,1,0.2h1v-0.8h-0.6c-1.6,0-1.6-3-1.6-5v-8.2c0-2.2,0.2-4.2,2.2-4v-0.8c-3.8,0.2-7.6,0.2-9.8,0.2
		C26.3,241.3,22.5,241.3,18.7,241.1L18.7,241.1z"/>
	<path class="st3" d="M49.5,259.3c-5,0-7.2-5.2-7.2-9.6c0-6.6,4-8,6.6-8c3.8,0,7,3.8,7,9.4C55.9,256.1,53.7,259.3,49.5,259.3
		L49.5,259.3z M49.5,240.7c-6,0-9.8,4.2-9.8,9.6c0,4.6,3,10,9.2,10c5.2,0,9.4-3.8,9.4-9.8C58.3,245.7,55.1,240.7,49.5,240.7
		L49.5,240.7z"/>
	<path class="st3" d="M66.5,258.9c-1.8,0-2.8-0.2-4.4-0.2c1.2-3.6,4.6-12.8,4.6-15H67c0,1,0.2,2.2,1,5c0.6,2.6,2,6.6,3.4,10
		C69.7,258.9,68.7,258.9,66.5,258.9L66.5,258.9z M71.6,252.9c-1-2.8-2.2-5.6-3.6-12.2h-1.4c-0.8,3.2-3.4,10.8-4.2,13.2
		c-1.6,4-1.6,4.8-2.4,4.8c-0.4,0-1.4-0.2-1.8-0.4c-0.2,2-0.4,3.8-0.8,5.6l1,0.2c0.2-1.2,0.8-2.8,1.4-3.4c0.8-0.8,2-0.8,3.2-0.8h9.4
		c1,0,2.4,0,2.4,2.2c0,0.2-0.2,1.4-0.4,2l1-0.2c0.8-2.8,1-4,1.2-5.6c-0.6,0.2-1.8,0.2-2.4,0.2C73.4,258.5,73.4,258.5,71.6,252.9
		L71.6,252.9z"/>
	<path class="st3" d="M86.9,258.9c-1.8,0-2.8-0.2-4.4-0.2c1.2-3.6,4.6-12.8,4.8-15h0.2c0,1,0.2,2.2,1,5c0.6,2.6,2.2,6.6,3.4,10
		C90.3,258.9,89.1,258.9,86.9,258.9L86.9,258.9z M92.1,252.9c-1-2.8-2.2-5.6-3.6-12.2h-1.4c-0.6,3.2-3.4,10.8-4.2,13.2
		c-1.4,4-1.6,4.8-2.4,4.8c-0.4,0-1.4-0.2-1.8-0.4c0,2-0.2,3.8-0.8,5.6l1,0.2c0.2-1.2,1-2.8,1.6-3.4c0.6-0.8,1.8-0.8,3-0.8h9.4
		c1,0,2.4,0,2.4,2.2c0,0.2-0.2,1.4-0.2,2l1-0.2c0.6-2.8,1-4,1-5.6c-0.6,0.2-1.6,0.2-2.4,0.2C94.1,258.5,94.1,258.5,92.1,252.9
		L92.1,252.9z"/>
	<path class="st3" d="M106.1,259.1c-2,0-2.8-0.4-2.8-4v-4.4l1.8-0.2h1.6c1.4,0,1.8,1,1.6,2.6h0.8c-0.2-2,0-3.8,0.4-5.6h-0.8
		c-0.2,1.8-1,2.2-2,2.2h-1.8h-1.6v-3c0-1.4,0-2.8,0.2-4.2h3.2c2,0,2.2,1,2.2,1.8c0,0.2,0,0.8-0.2,1.4h0.8c0.6-1.6,0.8-3.2,1-4.6
		c-2.2,0.2-3.6,0.2-5.8,0.2c-2,0-3.4,0-5.6-0.2v0.8h0.6c1.6,0,1.6,2.6,1.6,4v9.2c0,1.6,0,4-1.4,4h-0.8v0.8h0.6
		c1.2,0,1.6-0.2,3.2-0.2h1c0.6,0.2,1.4,0.2,2.2,0.2c1,0.2,2,0.2,3.2,0.2c1,0,1.6-0.4,2.4-4.4h-0.8
		C110.1,258.7,108.5,259.1,106.1,259.1L106.1,259.1z"/>
	<path class="st3" d="M120.7,241.1c-3,0-2.4,0.2-4.2,0.2c-0.6,0-1.2,0-2.4-0.2v0.8c2.2,0,2,1.4,2,4.4v8.4c0,1.8,0,4.4-1.4,4.4h-0.6
		v0.8h1c0.4,0,0.6,0,1-0.2h1.2h1c0.4,0.2,0.6,0.2,1,0.2h1.2v-0.8h-0.8c-1.6,0-1.6-2.4-1.6-4.8v-12.2c0.4,0,0.8-0.2,1.2-0.2
		c2.8,0,5,1.8,5,4.8c0,2.4-1.6,4.4-3.6,4.4h-1v0.6c0.2,0.2,0.6,0.2,1.2,0.2c2.6,0,5.6-2,5.6-5.4
		C126.5,243.7,124.7,241.1,120.7,241.1L120.7,241.1z"/>
	<path class="st3" d="M141.1,250.1c0-4.2-0.4-8.2,1.6-8.2h0.6v-0.8h-0.8c-0.4,0-0.8,0.2-1.2,0.2h-1h-1c-0.4,0-0.8-0.2-1.2-0.2h-1
		v0.8h0.6c2.2,0,1.6,4,1.6,8.2c0,2.4,0.8,9-1.4,9h-0.8v0.8h1c0.4,0,0.8,0,1.2-0.2h1h1c0.4,0.2,0.8,0.2,1,0.2h1v-0.8h-0.6
		C140.5,259.1,141.1,252.5,141.1,250.1L141.1,250.1z"/>
	<path class="st3" d="M143.3,250.1c3.4-3.6,6.6-8.2,9-8.2h0.6v-0.8h-0.8c-0.4,0-1,0.2-2,0.2h-1c-0.4,0-0.8-0.2-1-0.2h-0.8v0.8
		c0.2,0,1,0.2,1,0.4c0,1.4-5.4,6.8-6.4,8.2c3.6,4.2,6.4,9.6,10,9.6c0.6,0,1.2-0.2,1.8-0.4v-0.6h-0.8
		C149.1,259.1,150.7,254.7,143.3,250.1L143.3,250.1z"/>
	<path class="st3" d="M132.3,242.3c0-0.2,0.6-0.4,1-0.4v-0.8h-0.8c-0.4,0-0.8,0.2-1,0.2h-1c-1.2,0-1.4-0.2-2-0.2h-0.8v0.8h0.4
		c2.6,0,7,6,9.2,8.2c-2.2,1.2-3.6,2.8-6,6.2c-1.6,2-2.4,3.2-4.4,2.8v0.6c4.6,1.8,7.2-4.2,11.8-9.2
		C136.1,247.7,132.3,243.5,132.3,242.3L132.3,242.3z"/>
	<path class="st3" d="M160.1,254.1v-8c0-2.2,0-4.2,1.6-4.2h0.6v-0.8h-1c-0.4,0-0.8,0.2-1.2,0.2h-1h-1c-0.4,0-0.8-0.2-1.2-0.2h-0.8
		v0.8h0.6c1.6,0,1.4,2.6,1.4,4.2v8c0,1.8,0.2,5-1.4,5h-0.6v0.8h1c0.4,0,0.6,0,1-0.2h1.2h1c0.4,0.2,0.6,0.2,1,0.2h1v-0.8h-0.6
		C159.9,259.1,160.1,255.9,160.1,254.1L160.1,254.1z"/>
	<path class="st3" d="M166.5,252.9c-0.8-1.2-2.6-3-4-3.4l4.8-4.4c2-1.8,3-3.2,4.6-3.2h0.4v-0.8h-0.6c-0.4,0-0.6,0.2-1,0.2h-0.8h-1.2
		c-0.4,0-0.8-0.2-1.2-0.2h-1v0.8h0.6c0.6,0,0.6,0.4,0.6,0.8c0,0.6-1,1.6-7,7.4c6,5.6,7.4,10,10.6,10c0.6,0,1.2-0.2,1.8-0.4v-0.6
		h-1.4C170.7,259.1,169.7,256.7,166.5,252.9L166.5,252.9z"/>
	<path class="st3" d="M195.3,259.1c-1.8,0-1.4-2.2-1.4-4v-10.6v-3.8l-0.8,0.2c-11,14.4-4.6,5.2-13.4,16.5h-0.2c0-1,0.2-3.8,0.2-4.8
		v-7c0-1.8,0-3.8,1.4-3.8h0.6v-0.8h-0.8c-0.4,0-0.8,0.2-1.2,0.2h-1h-1c-0.4,0-0.8-0.2-1.2-0.2h-0.8v0.8h0.6c1.6,0,1.4,2,1.4,3.8v10
		c0,1.6,0,2.8-0.2,4.6l1.2-0.2c5-5.2,11-12.2,13.2-16h0.2c-0.4,1.8-0.4,3-0.4,4.8v6c0,2,0,4.2-1.4,4.2h-0.6v0.8h1
		c0.2,0,0.6,0,0.8-0.2h1.4c0.8,0,1,0.2,2,0.2h1v-0.8H195.3L195.3,259.1z"/>
	<path class="st3" d="M190.5,267.6c0.4,1.6,0.8,2.5,1.3,4.4H191h-1.9c0.7-2.3,1-2.9,1.3-4.4H190.5L190.5,267.6z M190.4,265.9
		c-0.7,2.5-2.8,9.6-4,9.6h-0.4v0.4h0.5c0.2,0,0.4,0,0.5-0.1h0.6h0.6c0.2,0.1,0.4,0.1,0.5,0.1h0.5v-0.4h-0.4c-0.6,0-0.6-0.5-0.6-0.9
		c0-0.6,0.5-1.6,0.7-2.2c0.6,0.1,1.3,0.1,2.2,0.1c0.4,0,0.7-0.1,1-0.1c0.5,1.2,1.1,3,0.2,3H192v0.4h0.4c0.2,0,0.5,0,0.6-0.1h0.9h0.5
		c0.2,0.1,0.4,0.1,0.6,0.1h0.5v-0.4H195c-0.7,0-1.6-1.2-4.1-9.7L190.4,265.9L190.4,265.9z M181.4,270.9c0.2-0.1,0.5-0.1,0.7-0.1
		c1.8,0,2.8,1,2.8,2.3c0,1.2-0.4,2.4-2.1,2.4c-1.6,0-1.5-0.7-1.5-2.3V270.9L181.4,270.9z M181.4,269.2c0-1,0-2.1,0.1-2.7h1
		c1,0,1.6,1.1,1.6,1.9c0,1.2-1.1,2.1-2.7,1.9V269.2L181.4,269.2z M180.3,273c0,1.1,0,2.5-0.7,2.5h-0.4v0.4h0.6
		c0.8,0,0.7-0.2,1.8-0.1c0.6,0.1,1,0.2,1.5,0.2c2.1,0,3-1.5,3-2.8c0-2.2-2.1-2.7-2.9-2.7H183v-0.1c1.3-0.1,2.2-1.1,2.2-2.2
		c0-0.8-0.5-2.2-2.4-2.2c-1.3,0-1.5,0.2-2.2,0.2c-0.5,0-0.5-0.2-1.3-0.1v0.4h0.4c0.9,0,0.7,1.3,0.7,2.2V273L180.3,273z M170.6,268.4
		c0.2-1.7,1.1-1.7,2.3-1.7h0.9v6.7c0,1,0,2.2-0.7,2.2h-0.4v0.4h0.6h0.5c0.2-0.1,0.5-0.1,0.6-0.1c0.2,0,0.3,0,0.6,0.1h0.6h0.5v-0.4
		h-0.4c-0.8,0-0.8-1.5-0.8-2.2v-6.7h1.1c0.8,0,2.2-0.2,1.8,1.7h0.5c0.3-1.5,0.3-2.1,0.3-2.4c-0.9,0.1-1.8,0.2-4.1,0.2
		c-0.7,0-2.2,0-3.8-0.2c-0.1,0.6-0.1,0.6-0.5,2.4H170.6L170.6,268.4z M169.4,268.7v-0.4c0-0.5,0.1-1.7,0.1-2.2h-0.6
		c-1.6,0-1.3-0.2-2.8-0.2c-3.2,0-5.3,2.3-5.3,5.1c0,3,2.6,5.1,5.5,5.1c2.7,0,3-1,3.6-2.3h-0.5c-0.5,1-1.6,1.7-3.2,1.7
		c-2.1,0-4.1-1.7-4.1-4.5c0-2.9,1.8-4.6,3.6-4.6c1,0,3.2,0,3.3,2.3H169.4L169.4,268.7z M155.2,270.9h0.9c0.6,0,2.7,0.1,2.7,2.3
		c0,1.4-0.8,2.3-2.2,2.3c-1.5,0-1.3-0.9-1.3-1.7V270.9L155.2,270.9z M153,266.5h0.4c0.8,0,0.7,1.2,0.7,2.4v4.1
		c0,1.1-0.1,2.4-0.9,2.4H153v0.4h0.6c0.6,0,0.7-0.1,1.3-0.1c0.2,0,0.5,0,0.6,0.1c0.4,0,0.8,0.1,1.2,0.1c2.1,0,3.2-1.6,3.2-3.2
		c0-1.7-1.7-2.4-3.5-2.4c-0.4,0-0.8,0.1-1.2,0.1v-1.9c0-1.1,0-2.1,0.9-2.1h0.2v-0.4h-0.5h-0.6c-0.1,0-0.4,0.1-0.5,0.1
		c-0.1,0-0.4-0.1-0.6-0.1h-0.5H153V266.5L153,266.5z M147.3,266.1c-0.4,1.1-0.5,1.8-1.6,4.7c-1.1,3.3-1.6,4.7-2.6,4.7h-0.4v0.4h0.4
		c0.2,0,0.4,0,0.6-0.1h0.6h0.6c0.3,0.1,0.4,0.1,0.6,0.1h0.5v-0.4h-0.4c-0.5,0-0.5-0.5-0.5-0.7c0-0.7,0.4-1.3,1.2-3.9
		c0.5-1.6,0.7-2.3,0.9-3.3c0.2,1.2,1.3,4,1.6,4.9c0.8,2.2,1.1,3,0,3h-0.1v0.4h0.4c0.2,0,0.4,0,0.6-0.1h0.6h0.7
		c0.2,0.1,0.5,0.1,0.7,0.1h0.4v-0.4h-0.2c-0.7,0-1.2-1.3-1.6-2.2c-0.9-2.3-1.2-3.1-2.5-7.4L147.3,266.1L147.3,266.1z M137.1,273.4
		c0,0.7,0,2.1-0.6,2.1h-0.5v0.4h0.4c0.6,0,0.9-0.1,1.7-0.1c0.1,0,0.2,0,0.5,0.1h1.1c0.6,0,1.1,0.1,1.7,0.1c0.5,0,0.8-0.2,1.2-2.3
		h-0.5c-0.4,1.6-1.2,1.7-2.4,1.7c-1,0-1.5-0.1-1.5-1.9v-2.3l1-0.1h0.8c0.7,0,0.9,0.5,0.7,1.3h0.5c0-1.1,0-2.1,0.1-2.9H141
		c0,1-0.5,1.1-1,1.1h-1h-0.9V269c0-0.7,0-1.3,0.1-2.2h1.7c1.1,0,1.1,0.5,1.1,1c0,0.1,0,0.5-0.1,0.7h0.5c0.2-0.8,0.5-1.6,0.5-2.3
		c-1.1,0.1-1.8,0.1-3,0.1c-1.1,0-1.7,0-2.9-0.1v0.4h0.4c0.9,0,0.7,1.3,0.7,2.1V273.4L137.1,273.4z M127.4,268.4
		c0.2-1.7,1.2-1.7,2.3-1.7h0.8v6.7c0,1,0,2.2-0.7,2.2h-0.2v0.4h0.5h0.5c0.2-0.1,0.5-0.1,0.6-0.1c0.3,0,0.4,0,0.6,0.1h0.6h0.5v-0.4
		h-0.4c-0.8,0-0.8-1.5-0.8-2.2v-6.7h1.1c0.9,0,2.2-0.2,1.8,1.7h0.5c0.2-1.5,0.2-2.1,0.2-2.4c-0.7,0.1-1.8,0.2-4.1,0.2
		c-0.7,0-2.2,0-3.7-0.2c-0.1,0.6-0.1,0.6-0.5,2.4H127.4L127.4,268.4z M123.2,267.6c0.5,1.6,1,2.5,1.5,4.4h-0.9h-1.9
		C122.6,269.7,122.8,269.1,123.2,267.6L123.2,267.6z M123.2,265.9c-0.7,2.5-2.8,9.6-4.1,9.6h-0.2v0.4h0.5c0.1,0,0.4,0,0.5-0.1h0.6
		h0.6c0.1,0.1,0.4,0.1,0.5,0.1h0.5v-0.4h-0.5c-0.6,0-0.5-0.5-0.5-0.9c0-0.6,0.5-1.6,0.6-2.2c0.7,0.1,1.5,0.1,2.3,0.1
		c0.4,0,0.6-0.1,1-0.1c0.5,1.2,1.1,3,0.2,3h-0.4v0.4h0.4c0.1,0,0.4,0,0.6-0.1h0.7h0.6c0.2,0.1,0.4,0.1,0.5,0.1h0.6v-0.4h-0.4
		c-0.7,0-1.7-1.2-4.1-9.7L123.2,265.9L123.2,265.9z M108.4,266.2c-0.1,1.6-0.1,2.3-0.4,5c-0.1,1.7-0.2,4.4-1.5,4.4h-0.2v0.4h0.5
		c0.1,0,0.4,0,0.5-0.1h0.6h0.6c0.1,0.1,0.4,0.1,0.5,0.1h0.5v-0.4h-0.2c-0.7,0-0.7-0.9-0.7-1.2c0-3.6,0.2-1,0.2-6.2h0.1
		c0.7,1.9,1.2,2.9,3.4,7.4h0.4c1.5-3.4,2.1-4,3.4-7.4h0.1c-0.2,1.7,0.1,2.9,0.1,6.2c0,0.4,0,1.2-0.6,1.2h-0.4v0.4h0.6
		c0.1,0,0.2,0,0.5-0.1h0.6h0.6c0.1,0.1,0.2,0.1,0.5,0.1h0.5v-0.4h-0.4c-0.8,0-0.8-2.2-1-3.2c0-1,0-0.7-0.1-2.9
		c-0.1-1.9-0.1-2.6-0.2-3.5l-0.5,0.1c-2.9,7-3.3,6.4-3.6,8.1h-0.1c-0.5-1.8-1.3-2.7-3.6-8.2L108.4,266.2L108.4,266.2z M105.7,275.9
		v-0.4h-0.2c-1,0-0.8-1.2-0.8-2.2v-5.4c0-0.2,0-0.6,0.1-1.9l-0.5,0.1c-5.7,7.5-2.4,2.7-7,8.6c0-0.6,0.1-1.9,0.1-2.5v-3.6
		c0-1-0.1-1.9,0.7-1.9h0.2v-0.4h-0.4h-0.6c-0.2,0.1-0.4,0.1-0.6,0.1c-0.1,0-0.4,0-0.5-0.1h-0.6h-0.5v0.4h0.4c0.8,0,0.7,1,0.7,1.9
		v5.2c0,0.8,0,1.5-0.1,2.4l0.6-0.1c2.7-2.8,5.7-6.4,6.9-8.4h0.1c-0.2,1-0.2,1.6-0.2,2.5v3c0,1.1,0,2.3-0.7,2.3h-0.2v0.4h0.5h0.5
		c0.1-0.1,0.4-0.1,0.6-0.1c0.5,0,0.5,0.1,1.1,0.1H105.7L105.7,275.9z M83.9,266.5h0.4c0.7,0,0.7,1,0.7,2.2v4.5c0,0.8,0,2.3-0.8,2.3
		h-0.2v0.4h0.5c0.2,0,0.4,0,0.6-0.1h0.5H86c0.1,0.1,0.4,0.1,0.5,0.1H87v-0.4h-0.2c-0.7,0-0.7-1.2-0.7-2.3V271c0.7,0.1,2.1,0.1,3,0.1
		c0.8,0,2.2,0,3-0.1v2.2c0,1.1,0,2.3-0.8,2.3H91v0.4h0.5c0.2,0,0.4,0,0.5-0.1h0.6h0.6c0.1,0.1,0.4,0.1,0.5,0.1h0.5v-0.4h-0.2
		c-0.9,0-0.7-1.5-0.7-2.3v-4.5c0-1.2-0.1-2.2,0.7-2.2h0.2v-0.4h-0.5h-0.5c-0.3,0-0.4,0.1-0.6,0.1c-0.1,0-0.4-0.1-0.5-0.1h-0.6H91
		v0.4h0.2c0.8,0,0.8,1,0.8,2.2v1.7c-0.7,0.1-1.8,0.2-3,0.2c-1.3,0-2.4-0.1-3-0.2v-1.7c0-1.2,0-2.2,0.7-2.2h0.4v-0.4h-0.5H86
		c-0.2,0-0.4,0.1-0.6,0.1c-0.1,0-0.4-0.1-0.5-0.1h-0.6h-0.5V266.5L83.9,266.5z M83.1,275.9v-0.4h-0.2c-1,0-0.7-1.2-0.7-2.2v-5.4
		v-1.9l-0.5,0.1c-5.6,7.5-2.3,2.7-6.9,8.6h-0.1c0-0.6,0.1-1.9,0.1-2.5v-3.6c0-1,0-1.9,0.7-1.9h0.4v-0.4h-0.5h-0.6
		c-0.1,0.1-0.4,0.1-0.5,0.1c-0.2,0-0.4,0-0.6-0.1h-0.6h-0.4v0.4h0.2c0.9,0,0.7,1,0.7,1.9v5.2v2.4l0.6-0.1c2.5-2.8,5.7-6.4,6.9-8.4
		c-0.1,1-0.1,1.6-0.1,2.5v3c0,1.1,0,2.3-0.7,2.3H80v0.4h0.5H81c0.2-0.1,0.5-0.1,0.6-0.1c0.5,0,0.6,0.1,1.1,0.1H83.1L83.1,275.9z
		 M69.2,275.9v-0.4h-0.5c-0.8,0-0.7-1.3-0.7-2.5v-6.3c0.1-0.1,0.4-0.1,0.5-0.1c1.5,0,2.7,0.9,2.7,2.4c0,1.3-0.8,2.4-1.8,2.4
		c-0.2,0-0.4,0-0.6-0.1v0.4c0.1,0.1,0.4,0.1,0.6,0.1c1.5,0,2.9-1.1,2.9-2.8c0-1.4-0.8-2.8-3-2.8c-1.5,0-1.2,0.1-2.1,0.1
		c-0.4,0-0.7-0.1-1.3-0.1v0.4c1.2-0.1,1.1,0.7,1.1,2.3v4.2c0,1,0,2.4-0.7,2.4h-0.4v0.4h0.6c0.1,0,0.2,0,0.5-0.1h0.6H68
		c0.2,0.1,0.4,0.1,0.5,0.1H69.2L69.2,275.9z M58,275.9v-0.4h-0.4c-0.9,0-0.7-1.5-0.7-2.4v-6.3h5.7v6.1c0,1.2,0.1,2.7-0.7,2.7h-0.3
		v0.4h0.5c0.2,0,0.4,0,0.6-0.1h0.6h0.5c0.1,0.1,0.4,0.1,0.5,0.1h0.5v-0.4h-0.2c-0.8,0-0.8-1.6-0.8-2.7v-4.2c0-1.2,0.1-2.2,1.2-2.1
		v-0.4c-2.1,0.1-4,0.1-5.1,0.1c-1.1,0-3,0-5.1-0.1v0.4c1.1-0.1,1.1,0.9,1.1,2.1v4.5c0,1,0,2.4-0.7,2.4h-0.4v0.4h0.6
		c0.1,0,0.4,0,0.5-0.1h0.6h0.5c0.1,0.1,0.4,0.1,0.6,0.1H58L58,275.9z M49.3,267.5c0,0.5,0.1,1.1,0.5,2.5c0.3,1.3,1.1,3.5,1.8,5.2
		h-2.7h-2.3c0.7-1.8,2.4-6.7,2.4-7.7H49.3L49.3,267.5z M44.8,278.1c0.1-0.6,0.5-1.5,0.7-1.8c0.4-0.4,1-0.4,1.7-0.4h4.9
		c0.5,0,1.2,0,1.2,1.1c0,0.3-0.1,0.7-0.1,1.1l0.5-0.1c0.4-1.5,0.5-2.1,0.6-2.9c-0.4,0.1-0.9,0.1-1.2,0.1c-0.4,0-0.4,0-1.5-2.9
		c-0.5-1.5-1.1-2.9-1.8-6.4l-0.7,0.1c-0.4,1.6-1.7,5.6-2.2,6.8c-0.8,2.1-0.8,2.4-1.2,2.4c-0.2,0-0.7,0-1-0.1c0,1.1-0.1,1.9-0.5,2.9
		L44.8,278.1L44.8,278.1z M38.7,273.4c0,0.7,0,2.1-0.6,2.1h-0.5v0.4H38c0.5,0,0.9-0.1,1.6-0.1c0.2,0,0.4,0,0.5,0.1h1.2
		c0.5,0,1.1,0.1,1.6,0.1c0.6,0,1-0.2,1.3-2.3h-0.5c-0.4,1.6-1.2,1.7-2.4,1.7c-1,0-1.5-0.1-1.5-1.9v-2.3l0.8-0.1h1
		c0.7,0,0.8,0.5,0.7,1.3h0.5c-0.1-1.1,0-2.1,0.1-2.9h-0.4c0,1-0.5,1.1-1,1.1h-1h-0.8V269c0-0.7,0-1.3,0.1-2.2h1.6
		c1.1,0,1.2,0.5,1.2,1c0,0.1,0,0.5-0.1,0.7h0.5c0.2-0.8,0.4-1.6,0.5-2.3c-1.2,0.1-1.9,0.1-3,0.1c-1.1,0-1.8,0-2.9-0.1v0.4H38
		c0.9,0,0.7,1.3,0.7,2.1V273.4L38.7,273.4z M34,275.9v-0.4h-0.5c-0.8,0-0.8-1.3-0.8-2.5v-6.3c0.2-0.1,0.5-0.1,0.6-0.1
		c1.5,0,2.7,0.9,2.7,2.4c0,1.3-0.8,2.4-1.9,2.4c-0.1,0-0.4,0-0.5-0.1v0.4c0.1,0.1,0.4,0.1,0.6,0.1c1.3,0,2.9-1.1,2.9-2.8
		c0-1.4-1-2.8-3-2.8c-1.6,0-1.2,0.1-2.2,0.1c-0.2,0-0.6-0.1-1.2-0.1v0.4c1.1-0.1,1.1,0.7,1.1,2.3v4.2c0,1,0,2.4-0.8,2.4h-0.3v0.4
		h0.5c0.2,0,0.4,0,0.5-0.1h0.6h0.6c0.1,0.1,0.4,0.1,0.5,0.1H34L34,275.9z M22.7,275.9v-0.4h-0.2c-0.8,0-0.7-1.5-0.7-2.4v-6.3h5.7
		v6.1c0,1.2,0.1,2.7-0.7,2.7h-0.4v0.4H27c0.1,0,0.4,0,0.6-0.1H28h0.5c0.2,0.1,0.4,0.1,0.6,0.1h0.5v-0.4h-0.4c-0.7,0-0.7-1.6-0.7-2.7
		v-4.2c0-1.2,0-2.2,1.1-2.1v-0.4c-2.1,0.1-3.9,0.1-5.1,0.1c-1.1,0-3,0-5-0.1v0.4c1-0.1,1.1,0.9,1.1,2.1v4.5c0,1,0,2.4-0.8,2.4h-0.2
		v0.4H20c0.2,0,0.4,0,0.6-0.1h0.5h0.5c0.2,0.1,0.4,0.1,0.6,0.1H22.7L22.7,275.9z"/>
	<path class="st0" d="M175.5,199h0.6c0,2.1,0.5,4.3,2.2,10.3c1.5,5.2,4.6,13.6,7.5,20.4c-3.8,0.3-6.1,0.3-11,0.3
		c-4.1,0-6.2-0.1-9.8-0.3C167.8,222.5,175.1,203.4,175.5,199L175.5,199z M156.1,237.6c1.4-4.5,4.6-5.5,9.6-5.5h20.8
		c4.3,0,7,2.1,6.1,5.5h2c1.5-5.6,1-5.7,1.3-8.6c-1.5,0.2-3.8,0.4-5.4,0.4c-1.5,0-1.5-0.2-5.8-11.5c-2.1-5.8-4.7-11.6-7.9-25.1
		l-3.2,0.1c-1.5,6.4-7.3,22-9.1,26.8c-3.3,8.3-3.5,9.7-5.3,9.7c-0.7,0-3.1-0.4-3.8-0.5c-0.4,3.8,0.1,4.9-1,8.6H156.1L156.1,237.6z"
		/>
	<path class="st0" d="M146.2,221.9v-18.2c0-4.3-0.4-8.3,3.1-8.3h1.4v-1.6h-2.1c-0.7,0-1.5,0.1-2.2,0.2c-0.9,0.1-1.7,0.1-2.6,0.1
		c-0.6,0-1.4,0-2.1-0.1c-0.9-0.1-1.9-0.2-2.6-0.2h-2.1v1.6h1.4c3.3,0,3.3,3.9,3.3,8.3v7.2c-2.9,0.4-7.6,0.9-13,0.9
		c-5.3,0-10-0.5-12.9-0.9v-7.2c0-4.3,0-8.3,3.3-8.3h1.4v-1.6h-2.1c-0.9,0-1.7,0.1-2.6,0.2c-0.7,0.1-1.5,0.1-2.1,0.1
		c-0.9,0-1.7,0-2.6-0.1c-0.7-0.1-1.5-0.2-2.2-0.2h-2.1v1.6h1.4c3.5,0,3.1,3.9,3.1,8.3v18.2c0,3,0.2,8.6-3.2,8.6h-1.4v1.6h2.4
		c0.7,0,1.4-0.1,2.1-0.3c0.9-0.1,1.7-0.2,2.5-0.2c0.7,0,1.6,0.1,2.3,0.2c0.8,0.1,1.5,0.3,2.2,0.3h2.2v-1.6H119
		c-3.2,0-3.2-4.3-3.2-8.6v-8.6c3.5,0.1,9,0.5,12.9,0.5c4,0,9.5-0.4,13-0.5v8.6c0,4.3,0,8.6-3.2,8.6H137v1.6h2.2
		c0.7,0,1.5-0.1,2.2-0.3c0.8-0.1,1.6-0.2,2.4-0.2c0.7,0,1.6,0.1,2.5,0.2c0.7,0.1,1.4,0.3,2.1,0.3h2.4v-1.6h-1.4
		C146,230.5,146.2,224.8,146.2,221.9L146.2,221.9z"/>
	<path class="st0" d="M85.5,231c-11,0-16.2-10.7-16.2-19.7c0-13.5,9.2-16.4,14.7-16.4c8.3,0,15.6,8,15.6,19.3
		C99.6,224.2,94.5,231,85.5,231L85.5,231z M85.2,193.1c-13.1,0-21.4,8.5-21.4,19.3c0,9.5,6.8,20.5,20.2,20.5c11.6,0,21-7.7,21-20
		C105,203.2,97.6,193.1,85.2,193.1L85.2,193.1z"/>
	<path class="st0" d="M41.2,226.5v-27.2c6.2,0.2,13,4.7,13,13.7C54.2,221.6,48.1,226.1,41.2,226.5L41.2,226.5z M37,226.2
		c-7.9-0.5-12.9-7.2-12.9-14c0-6.5,4.2-12.7,12.9-13V226.2L37,226.2z M40.8,197.7v-0.9c0-2.2,1.9-3.7,4.3-3.7h1.2v-1.6h-2
		c-0.7,0-1.6,0.1-2.3,0.2c-1,0.1-2,0.1-3,0.1c-2.9,0-3-0.4-5.5-0.4h-2.1v1.6H33c2.5,0,4.2,1.8,4.2,3.7v0.9
		c-9.5-0.1-18.2,5.4-18.2,14.4c0,10,9.1,15.6,18.2,15.7c0.2,2.7-1.4,5.1-4.3,5.1h-1.4v1.6h1.6c0.7,0,1.5-0.1,2.2-0.1
		c1.2-0.1,2.4-0.3,3.6-0.3c1.2,0,2.4,0.1,3.6,0.3c0.7,0,1.3,0.1,2,0.1h1.9v-1.6h-1.1c-4.3,0-4.5-3.8-4.5-5.1
		c6.7-0.3,18.3-3.1,18.3-14.8C59.1,205.6,53.9,198.3,40.8,197.7L40.8,197.7z"/>
</g>
</svg>
