<?xml version="1.0" encoding="utf-8"?>
<!-- Generator: Adobe Illustrator 24.1.0, SVG Export Plug-In . SVG Version: 6.00 Build 0)  -->
<svg version="1.1" id="Слой_1" xmlns="http://www.w3.org/2000/svg" xmlns:xlink="http://www.w3.org/1999/xlink" x="0px" y="0px"
	 viewBox="0 0 233 106" style="enable-background:new 0 0 233 106;" xml:space="preserve">
<style type="text/css">
	.st0{fill:#562212;}
	.st1{fill:#ED5338;}
	.st2{fill:#C59368;}
</style>
<g>
	<path class="st0" d="M14.4,76.1c4.6,0,8.2-3.5,8.2-8.3c0-5.2-3.1-8.2-8.1-8.2c-3.4,0-7.4,2.6-8.7,5.9C5.8,71.2,9,76.1,14.4,76.1
		L14.4,76.1z M24.6,46.6c-1.2,0.4-3.4,0.9-5.4,1.3c-1.9,0.4-4.5,0.8-7,1.7C8.1,51,6,55.1,5.6,60.3c0,0.3-0.2,0.7-0.3,1l0.2,0
		c1.6-3.4,5.9-5.6,10-5.6c7.2,0,11.9,4.7,11.9,11.9c0,6.3-5,12.5-13.1,12.5C5.5,80.2,0.9,73,0.9,63.9c0-10.1,2.9-15.5,9.4-18.2
		c1.9-0.8,3.6-1,5.1-1.4c3.5-0.7,5.7-1.2,7.9-1.8L24.6,46.6L24.6,46.6z"/>
	<path class="st0" d="M35.2,79.3h-4.4V55.4h4.9v15.6c0,0.6-0.1,1.1-0.2,1.5c0.1,0,0.2,0,0.2,0l13.9-17.1H54v23.9h-4.9V63.7
		c0-0.5,0.1-1.2,0.2-1.6h-0.2L35.2,79.3L35.2,79.3z"/>
	<path class="st0" d="M57.2,76.9l1.9-3.4c2,1.5,5,2.6,7.5,2.6c3.6,0,6-1.6,6-3.9c0-2-1.5-3-4.5-3h-4.1v-3.7H68
		c2.4,0,3.9-1.4,3.9-3.3c0-2.1-1.7-3.4-4.9-3.4c-2.3,0-5.1,0.8-7.3,2.5l-1.9-3.4c2.9-2.2,6.5-3.1,9.8-3.1c5.9,0,9.2,2.6,9.2,6.6
		c0,2.8-1.4,4.6-4.3,5.6v0.1c3.3,0.4,5.1,2.7,5.1,5.6c0,4.4-4.5,7.4-10.3,7.4C63,80.2,59.3,78.8,57.2,76.9L57.2,76.9z"/>
	<polygon class="st0" points="98.9,79.3 98.9,69 85.8,69 85.8,79.3 81,79.3 81,55.4 85.8,55.4 85.8,65.2 98.9,65.2 98.9,55.4 
		103.8,55.4 103.8,79.3 98.9,79.3 	"/>
	<path class="st0" d="M119.3,58.8c4.4,0,6.5,2.9,6.9,6.6h-13.9C112.9,61.7,115.6,58.8,119.3,58.8L119.3,58.8z M130.8,69.1
		c0-0.5,0.1-1,0.1-1.5c0-7.3-3.6-12.8-11.9-12.8c-7.2,0-11.8,5.5-11.8,12.8c0,7.2,4.7,12.6,13.2,12.6c4.1,0,7.6-1.2,10.2-3.3
		l-1.9-3.4c-1.9,1.4-4.7,2.7-8.1,2.7c-5.3,0-7.9-2.8-8.4-7h0H130.8L130.8,69.1z"/>
	<path class="st0" d="M147.4,58.9c2.5,0,4.9,0.6,7.8,2.4c0,0,1.2-2.2,2-3.5c-2.9-2-6.3-3-9.9-3c-7.9,0-13.1,5.4-13.1,12.7
		c0,7.1,5.3,12.7,13.2,12.7c3.9,0,7.3-1.1,9.8-3.1l-1.9-3.4c-1.9,1.4-4.6,2.4-7.6,2.4c-5,0-8.6-3.7-8.6-8.9
		C139,62.7,141.9,58.9,147.4,58.9L147.4,58.9z"/>
	<path class="st0" d="M145.2,16.3c0,1.7-0.8,2.7-2.2,2.7c-1.4,0-2.2-1.1-2.2-2.7h-7.1c0.2,5.1,3.2,8.5,9.3,8.5
		c5.7,0,8.9-3.5,9.1-8.5H145.2L145.2,16.3z"/>
	<path class="st0" d="M130.2,50.6l0-23.9h8.2c0,0,0,10.3,0,11.1c0,0.8-0.2,1.7-0.2,1.7h0.4l8.9-12.9h7.8v23.9h-8.2V39.4
		c0-0.8,0.2-1.6,0.2-1.6H147l-8.9,12.8H130.2L130.2,50.6z"/>
	<path class="st0" d="M113.4,43.8c3,0,4.9-2.3,4.9-5.1c0-2.9-2-5.2-4.9-5.2c-2.9,0-4.9,2.3-4.9,5.2
		C108.4,41.6,110.5,43.8,113.4,43.8L113.4,43.8z M113.4,26.1c7.8,0,13.5,5.4,13.5,12.6c0,7.1-5.8,12.5-13.5,12.5
		c-7.7,0-13.5-5.4-13.5-12.5C99.9,31.5,105.7,26.1,113.4,26.1L113.4,26.1z"/>
	<path class="st0" d="M90.1,26.7c0,0-6.8,8.7-7.1,9c-0.3,0.4-0.4,0.6-0.4,0.6h-0.4c0,0-0.1-0.2-0.4-0.6c-0.5-0.6-7.6-9-7.6-9h-6.4
		v23.9h7.9v-10c0-1.1-0.2-1.7-0.2-1.7h0.4l6.3,7.1h0.3l5.9-7.1h0.4c0,0-0.2,0.6-0.2,1.7v10h7.9V26.7H90.1L90.1,26.7z"/>
	<polygon class="st1" points="207.5,88.9 199.3,80.7 191.1,88.9 199.3,106 207.5,88.9 	"/>
	<path class="st2" d="M199.2,33.7c-3.1,0-5.7,2.5-5.7,5.7c0,3.1,2.5,5.7,5.7,5.7c3.1,0,5.7-2.5,5.7-5.7
		C204.9,36.2,202.4,33.7,199.2,33.7L199.2,33.7z"/>
	<path class="st2" d="M206.6,62.8l-7.3-7.3l-7.3,7.3c-0.4-1-5.3-14.2-5.3-22.9c0-11.6,11.7-18.2,12.6-18.6c0.9,0.5,12.6,7,12.6,18.6
		C211.8,48.5,207,61.8,206.6,62.8L206.6,62.8z M199.3,8.2c-1.7,0.9-24.4,12.9-24.4,32c0,16.4,13.3,41.2,13.3,41.2l11.1-11.1
		l11.1,11.1c0,0,13.3-24.8,13.3-41.2C223.7,21,201,9.1,199.3,8.2L199.3,8.2z"/>
	<polygon class="st2" points="223.7,16.5 215.3,8.2 223.7,-0.2 232,8.2 223.7,16.5 	"/>
</g>
</svg>
