<svg width="314" height="209" viewBox="0 0 314 209" fill="none" xmlns="http://www.w3.org/2000/svg">
<rect width="314" height="209" fill="white"/>
<path d="M189.083 62.75H124.917C119.854 62.75 115.75 66.8541 115.75 71.9167V136.083C115.75 141.146 119.854 145.25 124.917 145.25H189.083C194.146 145.25 198.25 141.146 198.25 136.083V71.9167C198.25 66.8541 194.146 62.75 189.083 62.75Z" stroke="#4B4B4B" stroke-width="4" stroke-linecap="round" stroke-linejoin="round"/>
<path d="M140.958 94.8333C144.755 94.8333 147.833 91.7553 147.833 87.9583C147.833 84.1614 144.755 81.0833 140.958 81.0833C137.162 81.0833 134.083 84.1614 134.083 87.9583C134.083 91.7553 137.162 94.8333 140.958 94.8333Z" stroke="#4B4B4B" stroke-width="4" stroke-linecap="round" stroke-linejoin="round"/>
<path d="M198.25 117.75L175.333 94.8333L124.917 145.25" stroke="#4B4B4B" stroke-width="4" stroke-linecap="round" stroke-linejoin="round"/>
</svg>
