<svg width="420" height="420" viewBox="0 0 420 420" fill="none" xmlns="http://www.w3.org/2000/svg">
<path d="M68.9071 39.3698H42.6568C40.8463 39.3698 39.3755 37.899 39.3755 36.0885C39.3755 34.2781 40.8463 32.8073 42.6568 32.8073H68.9071C70.7175 32.8073 72.1883 34.2781 72.1883 36.0885C72.1883 37.899 70.7175 39.3698 68.9071 39.3698Z" fill="#263238"/>
<path d="M55.7819 52.495C53.9714 52.495 52.5006 51.0241 52.5006 49.2137V22.9634C52.5006 21.1529 53.9714 19.6821 55.7819 19.6821C57.5924 19.6821 59.0632 21.1529 59.0632 22.9634V49.2137C59.0632 51.0241 57.5924 52.495 55.7819 52.495Z" fill="#263238"/>
<path d="M29.5316 68.9014H3.28129C1.47081 68.9014 0 67.4306 0 65.6201C0 63.8096 1.47081 62.3388 3.28129 62.3388H29.5316C31.3421 62.3388 32.8129 63.8096 32.8129 65.6201C32.8129 67.4306 31.3421 68.9014 29.5316 68.9014Z" fill="#263238"/>
<path d="M16.4064 82.0266C14.596 82.0266 13.1252 80.5558 13.1252 78.7453V52.495C13.1252 50.6845 14.596 49.2137 16.4064 49.2137C18.2169 49.2137 19.6877 50.6845 19.6877 52.495V78.7453C19.6877 80.5558 18.2169 82.0266 16.4064 82.0266Z" fill="#263238"/>
<path d="M377.348 121.402H42.6568C40.8463 121.402 39.3755 119.931 39.3755 118.121V82.0265C39.3755 71.1733 48.2099 62.3388 59.0632 62.3388H360.942C371.795 62.3388 380.629 71.1733 380.629 82.0265V118.121C380.629 119.931 379.159 121.402 377.348 121.402ZM45.938 114.839H374.067V82.0265C374.067 74.7878 368.18 68.9014 360.942 68.9014H59.0632C51.8245 68.9014 45.938 74.7878 45.938 82.0265V114.839Z" fill="#263238"/>
<path d="M65.6258 104.996C58.3871 104.996 52.5006 99.1091 52.5006 91.8704C52.5006 84.6317 58.3871 78.7452 65.6258 78.7452C72.8645 78.7452 78.7509 84.6317 78.7509 91.8704C78.7509 99.1091 72.8645 104.996 65.6258 104.996ZM65.6258 85.3078C62.0048 85.3078 59.0632 88.2558 59.0632 91.8704C59.0632 95.4881 62.0048 98.433 65.6258 98.433C69.2467 98.433 72.1883 95.4881 72.1883 91.8704C72.1883 88.2558 69.2467 85.3078 65.6258 85.3078Z" fill="#263238"/>
<path d="M98.4386 104.996C91.1999 104.996 85.3135 99.1091 85.3135 91.8704C85.3135 84.6317 91.1999 78.7452 98.4386 78.7452C105.677 78.7452 111.564 84.6317 111.564 91.8704C111.564 99.1091 105.677 104.996 98.4386 104.996ZM98.4386 85.3078C94.8177 85.3078 91.8761 88.2558 91.8761 91.8704C91.8761 95.4881 94.8177 98.433 98.4386 98.433C102.06 98.433 105.001 95.4881 105.001 91.8704C105.001 88.2558 102.06 85.3078 98.4386 85.3078Z" fill="#263238"/>
<path d="M82.0322 383.905H68.9071C67.0966 383.905 65.6258 382.434 65.6258 380.624C65.6258 378.813 67.0966 377.343 68.9071 377.343H82.0322C83.8427 377.343 85.3135 378.813 85.3135 380.624C85.3135 382.434 83.8427 383.905 82.0322 383.905Z" fill="#263238"/>
<path d="M226.409 383.905H95.1574C93.3469 383.905 91.8761 382.434 91.8761 380.624C91.8761 378.813 93.3469 377.343 95.1574 377.343H226.409C228.219 377.343 229.69 378.813 229.69 380.624C229.69 382.434 228.219 383.905 226.409 383.905Z" fill="#263238"/>
<path d="M351.098 42.6511H337.973C336.162 42.6511 334.691 41.1803 334.691 39.3698C334.691 37.5593 336.162 36.0885 337.973 36.0885H351.098C352.908 36.0885 354.379 37.5593 354.379 39.3698C354.379 41.1803 352.908 42.6511 351.098 42.6511Z" fill="#263238"/>
<path d="M324.848 42.6511H193.596C191.786 42.6511 190.315 41.1803 190.315 39.3698C190.315 37.5593 191.786 36.0885 193.596 36.0885H324.848C326.658 36.0885 328.129 37.5593 328.129 39.3698C328.129 41.1803 326.658 42.6511 324.848 42.6511Z" fill="#263238"/>
<path d="M342.475 322.781V378.47L358.718 362.231L393.518 397.03L416.724 373.827L381.921 339.025L398.164 322.781H342.475Z" fill="#40C4FF"/>
<path d="M393.524 400.312C392.652 400.312 391.819 399.966 391.201 399.353L358.718 366.871L344.798 380.787C343.853 381.733 342.443 382.008 341.222 381.499C339.995 380.992 339.194 379.791 339.194 378.464V322.782C339.194 320.971 340.664 319.5 342.475 319.5H398.157C399.484 319.5 400.686 320.301 401.189 321.529C401.695 322.756 401.413 324.166 400.481 325.105L386.554 339.031L419.04 371.517C420.319 372.796 420.319 374.875 419.04 376.157L395.841 399.36C395.232 399.966 394.399 400.312 393.524 400.312ZM358.718 358.949C359.557 358.949 360.397 359.27 361.041 359.908L393.524 392.39L412.084 373.827L379.598 341.341C378.982 340.723 378.64 339.89 378.64 339.018C378.64 338.147 378.989 337.31 379.598 336.695L390.243 326.05H345.763V370.53L356.401 359.895C357.036 359.27 357.878 358.949 358.718 358.949Z" fill="#263238"/>
<path d="M329.356 357.655H59.0632C48.2099 357.655 39.3755 348.824 39.3755 337.967V118.121C39.3755 116.31 40.8463 114.839 42.6568 114.839H377.348C379.159 114.839 380.629 116.31 380.629 118.121V309.663C380.629 311.473 379.159 312.944 377.348 312.944C375.538 312.944 374.067 311.473 374.067 309.663V121.402H45.938V337.967C45.938 345.206 51.8245 351.092 59.0632 351.092H329.356C331.167 351.092 332.637 352.563 332.637 354.374C332.637 356.184 331.167 357.655 329.356 357.655Z" fill="#263238"/>
<path d="M111.564 137.808H308.441V203.434H111.564V137.808Z" fill="#FFD740"/>
<path d="M308.441 206.715H111.564C109.753 206.715 108.283 205.245 108.283 203.434V137.808C108.283 135.998 109.753 134.527 111.564 134.527H308.441C310.252 134.527 311.722 135.998 311.722 137.808V203.434C311.722 205.245 310.252 206.715 308.441 206.715ZM114.845 200.153H305.16V141.09H114.845V200.153Z" fill="#263238"/>
<path d="M308.441 206.715C308.092 206.715 307.752 206.664 307.403 206.546L110.526 140.92C108.808 140.349 107.882 138.491 108.452 136.773C109.029 135.053 110.888 134.139 112.608 134.697L309.486 200.323C311.203 200.896 312.129 202.752 311.559 204.472C311.091 205.85 309.813 206.715 308.441 206.715Z" fill="#263238"/>
<path d="M111.564 206.716C110.192 206.716 108.914 205.85 108.446 204.472C107.876 202.752 108.808 200.896 110.519 200.323L307.396 134.697C309.111 134.133 310.976 135.053 311.553 136.774C312.123 138.491 311.19 140.35 309.479 140.92L112.602 206.546C112.253 206.664 111.913 206.716 111.564 206.716Z" fill="#263238"/>
<path d="M91.8761 190.309C91.0365 190.309 90.197 189.989 89.5529 189.351L73.1465 172.945C71.8679 171.666 71.8679 169.586 73.1465 168.305L89.5529 151.898C90.8314 150.62 92.9143 150.62 94.1928 151.898C95.4714 153.18 95.4714 155.26 94.1928 156.538L80.1096 170.621L94.1928 184.705C95.4714 185.986 95.4714 188.066 94.1928 189.345C93.5552 189.989 92.7156 190.309 91.8761 190.309Z" fill="#263238"/>
<path d="M328.129 190.309C327.289 190.309 326.45 189.989 325.806 189.351C324.527 188.072 324.527 185.993 325.806 184.711L339.895 170.621L325.812 156.538C324.534 155.26 324.534 153.18 325.812 151.898C327.091 150.62 329.173 150.62 330.452 151.898L346.858 168.305C348.137 169.586 348.137 171.666 346.858 172.945L330.452 189.351C329.808 189.989 328.968 190.309 328.129 190.309Z" fill="#263238"/>
<path d="M111.564 229.685H164.064V282.185H111.564V229.685Z" fill="#FF5252"/>
<path d="M164.064 285.466H111.564C109.753 285.466 108.283 283.996 108.283 282.185V229.684C108.283 227.874 109.753 226.403 111.564 226.403H164.064C165.875 226.403 167.346 227.874 167.346 229.684V282.185C167.346 283.996 165.875 285.466 164.064 285.466ZM114.845 278.904H160.783V232.966H114.845V278.904Z" fill="#263238"/>
<path d="M164.064 285.466C163.225 285.466 162.385 285.146 161.741 284.508L109.241 232.008C107.962 230.729 107.962 228.649 109.241 227.368C110.519 226.089 112.602 226.089 113.881 227.368L166.381 279.868C167.66 281.15 167.66 283.23 166.381 284.508C165.744 285.146 164.904 285.466 164.064 285.466Z" fill="#263238"/>
<path d="M111.564 285.466C110.724 285.466 109.885 285.146 109.241 284.508C107.962 283.23 107.962 281.15 109.241 279.868L161.741 227.368C163.02 226.089 165.103 226.089 166.381 227.368C167.66 228.649 167.66 230.729 166.381 232.008L113.881 284.508C113.243 285.146 112.403 285.466 111.564 285.466Z" fill="#263238"/>
<path d="M230.235 232.966H181.016C179.205 232.966 177.734 231.495 177.734 229.684C177.734 227.874 179.205 226.403 181.016 226.403H230.235C232.045 226.403 233.516 227.874 233.516 229.684C233.516 231.495 232.045 232.966 230.235 232.966Z" fill="#263238"/>
<path d="M230.235 259.216H181.016C179.205 259.216 177.734 257.745 177.734 255.935C177.734 254.124 179.205 252.654 181.016 252.654H230.235C232.045 252.654 233.516 254.124 233.516 255.935C233.516 257.745 232.045 259.216 230.235 259.216Z" fill="#263238"/>
<path d="M230.235 285.466H181.016C179.205 285.466 177.734 283.996 177.734 282.185C177.734 280.375 179.205 278.904 181.016 278.904H230.235C232.045 278.904 233.516 280.375 233.516 282.185C233.516 283.996 232.045 285.466 230.235 285.466Z" fill="#263238"/>
<path d="M308.441 337.967H255.94C254.13 337.967 252.659 336.496 252.659 334.686V229.684C252.659 227.874 254.13 226.403 255.94 226.403H308.441C310.252 226.403 311.722 227.874 311.722 229.684V334.686C311.722 336.496 310.252 337.967 308.441 337.967ZM259.222 331.404H305.16V232.966H259.222V331.404Z" fill="#263238"/>
<path d="M308.441 337.967C307.24 337.967 306.086 337.304 305.509 336.157L253.008 231.155C252.201 229.534 252.855 227.566 254.476 226.753C256.098 225.945 258.068 226.596 258.882 228.223L311.383 333.225C312.187 334.843 311.533 336.813 309.912 337.627C309.431 337.855 308.935 337.967 308.441 337.967Z" fill="#263238"/>
<path d="M255.94 337.967C255.447 337.967 254.95 337.855 254.47 337.621C252.848 336.807 252.195 334.836 252.999 333.215L305.499 228.214C306.313 226.595 308.284 225.945 309.906 226.746C311.527 227.56 312.181 229.527 311.373 231.149L258.873 336.15C258.296 337.304 257.142 337.967 255.94 337.967Z" fill="#263238"/>
<path d="M229.69 344.53C227.88 344.53 226.409 343.059 226.409 341.248V311.717H114.845V341.248C114.845 343.059 113.374 344.53 111.564 344.53C109.753 344.53 108.283 343.059 108.283 341.248V308.435C108.283 306.625 109.753 305.154 111.564 305.154H229.69C231.501 305.154 232.971 306.625 232.971 308.435V341.248C232.971 343.059 231.501 344.53 229.69 344.53Z" fill="#263238"/>
</svg>
