<svg width="30" height="31" viewBox="0 0 30 31" fill="none" xmlns="http://www.w3.org/2000/svg">
<path d="M27.0443 0.133545H2.95567C1.3233 0.133545 0 1.47579 0 3.13154V27.5652C0 29.221 1.3233 30.5632 2.95567 30.5632H27.0443C28.6767 30.5632 30 29.221 30 27.5652V3.13154C30 1.47579 28.6767 0.133545 27.0443 0.133545Z" fill="#0BA3D7"/>
<path d="M16.6374 26.3147V16.2845H19.9574L20.4535 12.3752H16.6374V9.8796C16.6374 8.74863 16.948 7.97707 18.5472 7.97707H20.5846V4.47991C19.5967 4.37453 18.6039 4.32333 17.6106 4.32656C14.6696 4.32656 12.65 6.14762 12.65 9.49263V12.3752H9.33105V16.2845H12.6582V26.3147H16.6374Z" fill="white"/>
</svg>
