<svg width="30" height="31" viewBox="0 0 30 31" fill="none" xmlns="http://www.w3.org/2000/svg">
<path d="M27.0443 0.133545H2.95567C1.3233 0.133545 0 1.47579 0 3.13154V27.5652C0 29.221 1.3233 30.5632 2.95567 30.5632H27.0443C28.6767 30.5632 30 29.221 30 27.5652V3.13154C30 1.47579 28.6767 0.133545 27.0443 0.133545Z" fill="#0BA3D7"/>
<path fill-rule="evenodd" clip-rule="evenodd" d="M14.7346 21.7978H16.0846C16.0846 21.7978 16.4933 21.7523 16.7023 21.5235C16.8937 21.315 16.8877 20.9245 16.8877 20.9245C16.8877 20.9245 16.8618 19.0831 17.7027 18.8124C18.5437 18.5416 19.5996 20.5914 20.7299 21.3785C21.5838 21.9775 22.2334 21.8434 22.2334 21.8434L25.2547 21.8002C25.2547 21.8002 26.8362 21.7008 26.0814 20.4405C26.02 20.3374 25.6444 19.5084 23.8373 17.8048C21.9476 16.021 22.1968 16.3097 24.4787 13.2248C25.8688 11.3451 26.424 10.1986 26.2503 9.70743C26.085 9.23901 25.0621 9.3624 25.0621 9.3624L21.6606 9.38396C21.5096 9.36583 21.3568 9.39334 21.2212 9.46303C21.0945 9.55841 20.9934 9.68444 20.9271 9.82963C20.5745 10.7569 20.1545 11.6563 19.6704 12.5204C18.1551 15.1297 17.5444 15.2674 17.3023 15.1057C16.7259 14.7271 16.87 13.5878 16.87 12.7791C16.87 10.2501 17.248 9.19588 16.1342 8.92273C15.7645 8.83168 15.4917 8.77298 14.5456 8.76219C13.3315 8.75021 12.3015 8.76219 11.7228 9.05571C11.3354 9.24739 11.0366 9.67628 11.2196 9.70144C11.4441 9.73139 11.9531 9.84041 12.2236 10.213C12.572 10.6922 12.559 11.7704 12.559 11.7704C12.559 11.7704 12.7598 14.7475 12.0866 15.1165C11.6283 15.3705 11 14.8529 9.64878 12.4808C9.19022 11.6573 8.78465 10.8045 8.43461 9.92787C8.37182 9.77916 8.27555 9.64745 8.15351 9.5433C7.99566 9.43659 7.81803 9.36362 7.63146 9.32886L4.39879 9.35042C4.39879 9.35042 3.91335 9.3648 3.73501 9.57924C3.57674 9.76973 3.72201 10.1627 3.72201 10.1627C3.72201 10.1627 6.25311 16.1695 9.11846 19.1957C11.7476 21.9715 14.7311 21.7894 14.7311 21.7894L14.7346 21.7978Z" fill="white"/>
</svg>
