<svg width="221" height="148" viewBox="0 0 221 148" fill="none" xmlns="http://www.w3.org/2000/svg">
<rect x="0.513672" y="0.945312" width="219.973" height="146.651" fill="white"/>
<path d="M132.976 44.9766H88.0238C84.4771 44.9766 81.6021 47.8563 81.6021 51.4086V96.4331C81.6021 99.9855 84.4771 102.865 88.0238 102.865H132.976C136.522 102.865 139.397 99.9855 139.397 96.4331V51.4086C139.397 47.8563 136.522 44.9766 132.976 44.9766Z" stroke="#4B4B4B" stroke-width="4" stroke-linecap="round" stroke-linejoin="round"/>
<path d="M99.2621 67.4889C101.922 67.4889 104.078 65.3291 104.078 62.6649C104.078 60.0006 101.922 57.8408 99.2621 57.8408C96.6021 57.8408 94.4458 60.0006 94.4458 62.6649C94.4458 65.3291 96.6021 67.4889 99.2621 67.4889Z" stroke="#4B4B4B" stroke-width="4" stroke-linecap="round" stroke-linejoin="round"/>
<path d="M139.398 83.5685L123.343 67.4883L88.0239 102.865" stroke="#4B4B4B" stroke-width="4" stroke-linecap="round" stroke-linejoin="round"/>
</svg>
