<svg width="320" height="320" viewBox="0 0 320 320" fill="none" xmlns="http://www.w3.org/2000/svg">
<path d="M52.5006 29.996H32.5004C31.121 29.996 30.0004 28.8754 30.0004 27.496C30.0004 26.1166 31.121 24.996 32.5004 24.996H52.5006C53.88 24.996 55.0007 26.1166 55.0007 27.496C55.0007 28.8754 53.88 29.996 52.5006 29.996Z" fill="#263238"/>
<path d="M42.5005 39.9961C41.1211 39.9961 40.0005 38.8755 40.0005 37.4961V17.4959C40.0005 16.1165 41.1211 14.9958 42.5005 14.9958C43.8799 14.9958 45.0005 16.1165 45.0005 17.4959V37.4961C45.0005 38.8755 43.8799 39.9961 42.5005 39.9961Z" fill="#263238"/>
<path d="M22.5003 52.4963H2.50003C1.12062 52.4963 0 51.3757 0 49.9962C0 48.6168 1.12062 47.4962 2.50003 47.4962H22.5003C23.8797 47.4962 25.0003 48.6168 25.0003 49.9962C25.0003 51.3757 23.8797 52.4963 22.5003 52.4963Z" fill="#263238"/>
<path d="M12.5002 62.4964C11.1207 62.4964 10.0001 61.3758 10.0001 59.9964V39.9961C10.0001 38.6167 11.1207 37.4961 12.5002 37.4961C13.8796 37.4961 15.0002 38.6167 15.0002 39.9961V59.9964C15.0002 61.3758 13.8796 62.4964 12.5002 62.4964Z" fill="#263238"/>
<path d="M287.503 92.4967H32.5004C31.121 92.4967 30.0004 91.3761 30.0004 89.9967V62.4964C30.0004 54.2273 36.7314 47.4962 45.0005 47.4962H275.003C283.272 47.4962 290.003 54.2273 290.003 62.4964V89.9967C290.003 91.3761 288.883 92.4967 287.503 92.4967ZM35.0004 87.4967H285.003V62.4964C285.003 56.9812 280.518 52.4963 275.003 52.4963H45.0005C39.4853 52.4963 35.0004 56.9812 35.0004 62.4964V87.4967Z" fill="#263238"/>
<path d="M50.0006 79.9966C44.4854 79.9966 40.0005 75.5117 40.0005 69.9965C40.0005 64.4813 44.4854 59.9964 50.0006 59.9964C55.5158 59.9964 60.0007 64.4813 60.0007 69.9965C60.0007 75.5117 55.5158 79.9966 50.0006 79.9966ZM50.0006 64.9965C47.2418 64.9965 45.0005 67.2426 45.0005 69.9965C45.0005 72.7529 47.2418 74.9966 50.0006 74.9966C52.7594 74.9966 55.0007 72.7529 55.0007 69.9965C55.0007 67.2426 52.7594 64.9965 50.0006 64.9965Z" fill="#263238"/>
<path d="M75.0009 79.9966C69.4856 79.9966 65.0007 75.5117 65.0007 69.9965C65.0007 64.4813 69.4856 59.9964 75.0009 59.9964C80.5161 59.9964 85.001 64.4813 85.001 69.9965C85.001 75.5117 80.5161 79.9966 75.0009 79.9966ZM75.0009 64.9965C72.242 64.9965 70.0008 67.2426 70.0008 69.9965C70.0008 72.7529 72.242 74.9966 75.0009 74.9966C77.7597 74.9966 80.0009 72.7529 80.0009 69.9965C80.0009 67.2426 77.7597 64.9965 75.0009 64.9965Z" fill="#263238"/>
<path d="M62.5008 292.499H52.5006C51.1212 292.499 50.0006 291.378 50.0006 289.999C50.0006 288.62 51.1212 287.499 52.5006 287.499H62.5008C63.8802 287.499 65.0008 288.62 65.0008 289.999C65.0008 291.378 63.8802 292.499 62.5008 292.499Z" fill="#263238"/>
<path d="M172.502 292.499H72.5009C71.1215 292.499 70.0009 291.378 70.0009 289.999C70.0009 288.62 71.1215 287.499 72.5009 287.499H172.502C173.881 287.499 175.002 288.62 175.002 289.999C175.002 291.378 173.881 292.499 172.502 292.499Z" fill="#263238"/>
<path d="M267.503 32.496H257.503C256.124 32.496 255.003 31.3754 255.003 29.996C255.003 28.6166 256.124 27.496 257.503 27.496H267.503C268.882 27.496 270.003 28.6166 270.003 29.996C270.003 31.3754 268.882 32.496 267.503 32.496Z" fill="#263238"/>
<path d="M247.503 32.496H147.502C146.122 32.496 145.002 31.3754 145.002 29.996C145.002 28.6166 146.122 27.496 147.502 27.496H247.503C248.882 27.496 250.003 28.6166 250.003 29.996C250.003 31.3754 248.882 32.496 247.503 32.496Z" fill="#263238"/>
<path d="M260.933 245.929V288.358L273.309 275.985L299.823 302.499L317.504 284.821L290.987 258.304L303.363 245.929H260.933Z" fill="#40C4FF"/>
<path d="M299.828 304.999C299.164 304.999 298.529 304.736 298.058 304.269L273.309 279.52L262.703 290.124C261.983 290.844 260.909 291.054 259.979 290.666C259.044 290.28 258.433 289.364 258.433 288.354V245.929C258.433 244.549 259.554 243.429 260.933 243.429H303.358C304.369 243.429 305.284 244.039 305.668 244.974C306.053 245.909 305.839 246.983 305.128 247.699L294.518 258.309L319.269 283.061C320.243 284.035 320.243 285.619 319.269 286.596L301.593 304.274C301.129 304.736 300.494 304.999 299.828 304.999ZM273.309 273.485C273.949 273.485 274.588 273.729 275.079 274.215L299.828 298.964L313.969 284.821L289.217 260.07C288.749 259.598 288.487 258.964 288.487 258.299C288.487 257.635 288.753 256.998 289.217 256.529L297.328 248.419H263.438V282.309L271.544 274.205C272.027 273.729 272.669 273.485 273.309 273.485Z" fill="#263238"/>
<path d="M250.938 272.499H45.0005C36.7314 272.499 30.0004 265.77 30.0004 257.499V89.9967C30.0004 88.6173 31.121 87.4967 32.5004 87.4967H287.503C288.883 87.4967 290.003 88.6173 290.003 89.9967V235.934C290.003 237.313 288.883 238.434 287.503 238.434C286.124 238.434 285.003 237.313 285.003 235.934V92.4968H35.0004V257.499C35.0004 263.014 39.4853 267.499 45.0005 267.499H250.938C252.317 267.499 253.438 268.619 253.438 269.999C253.438 271.378 252.317 272.499 250.938 272.499Z" fill="#263238"/>
<path d="M85.001 104.997H235.003V154.998H85.001V104.997Z" fill="#FFD740"/>
<path d="M235.003 157.498H85.001C83.6216 157.498 82.501 156.377 82.501 154.998V104.997C82.501 103.618 83.6216 102.497 85.001 102.497H235.003C236.382 102.497 237.503 103.618 237.503 104.997V154.998C237.503 156.377 236.382 157.498 235.003 157.498ZM87.501 152.498H232.503V107.497H87.501V152.498Z" fill="#263238"/>
<path d="M235.003 157.498C234.737 157.498 234.478 157.458 234.212 157.368L84.21 107.368C82.9014 106.933 82.1958 105.517 82.6304 104.208C83.0699 102.897 84.4859 102.201 85.797 102.626L235.799 152.627C237.107 153.064 237.813 154.477 237.378 155.789C237.022 156.838 236.048 157.498 235.003 157.498Z" fill="#263238"/>
<path d="M85.0011 157.498C83.9561 157.498 82.982 156.838 82.6256 155.789C82.191 154.478 82.9014 153.064 84.2052 152.627L234.207 102.626C235.513 102.197 236.934 102.897 237.373 104.208C237.808 105.517 237.098 106.933 235.794 107.368L85.7921 157.368C85.526 157.459 85.2672 157.498 85.0011 157.498Z" fill="#263238"/>
<path d="M70.0008 144.997C69.3611 144.997 68.7215 144.753 68.2308 144.267L55.7306 131.767C54.7565 130.793 54.7565 129.209 55.7306 128.232L68.2308 115.732C69.2049 114.758 70.7918 114.758 71.766 115.732C72.7401 116.709 72.7401 118.293 71.766 119.267L61.0358 129.997L71.766 140.727C72.7401 141.704 72.7401 143.288 71.766 144.263C71.2801 144.753 70.6405 144.997 70.0008 144.997Z" fill="#263238"/>
<path d="M250.003 144.997C249.363 144.997 248.724 144.753 248.233 144.267C247.259 143.293 247.259 141.709 248.233 140.732L258.968 129.997L248.238 119.267C247.264 118.293 247.264 116.709 248.238 115.732C249.212 114.758 250.799 114.758 251.773 115.732L264.273 128.232C265.247 129.209 265.247 130.793 264.273 131.767L251.773 144.267C251.282 144.753 250.643 144.997 250.003 144.997Z" fill="#263238"/>
<path d="M85.001 174.998H125.001V214.998H85.001V174.998Z" fill="#FF5252"/>
<path d="M125.001 217.498H85.001C83.6216 217.498 82.501 216.378 82.501 214.998V174.998C82.501 173.618 83.6216 172.498 85.001 172.498H125.001C126.381 172.498 127.501 173.618 127.501 174.998V214.998C127.501 216.378 126.381 217.498 125.001 217.498ZM87.501 212.498H122.501V177.498H87.501V212.498Z" fill="#263238"/>
<path d="M125.001 217.498C124.362 217.498 123.722 217.254 123.231 216.768L83.231 176.768C82.2568 175.794 82.2568 174.209 83.231 173.233C84.2051 172.258 85.792 172.258 86.7662 173.233L126.767 213.233C127.741 214.21 127.741 215.794 126.767 216.768C126.281 217.254 125.641 217.498 125.001 217.498Z" fill="#263238"/>
<path d="M85.001 217.498C84.3613 217.498 83.7217 217.254 83.231 216.768C82.2568 215.794 82.2568 214.21 83.231 213.233L123.231 173.233C124.206 172.258 125.792 172.258 126.767 173.233C127.741 174.209 127.741 175.794 126.767 176.768L86.7662 216.768C86.2803 217.254 85.6407 217.498 85.001 217.498Z" fill="#263238"/>
<path d="M175.417 177.498H137.917C136.537 177.498 135.417 176.377 135.417 174.998C135.417 173.618 136.537 172.498 137.917 172.498H175.417C176.797 172.498 177.917 173.618 177.917 174.998C177.917 176.377 176.797 177.498 175.417 177.498Z" fill="#263238"/>
<path d="M175.417 197.498H137.917C136.537 197.498 135.417 196.377 135.417 194.998C135.417 193.619 136.537 192.498 137.917 192.498H175.417C176.797 192.498 177.917 193.619 177.917 194.998C177.917 196.377 176.797 197.498 175.417 197.498Z" fill="#263238"/>
<path d="M175.417 217.498H137.917C136.537 217.498 135.417 216.378 135.417 214.998C135.417 213.619 136.537 212.498 137.917 212.498H175.417C176.797 212.498 177.917 213.619 177.917 214.998C177.917 216.378 176.797 217.498 175.417 217.498Z" fill="#263238"/>
<path d="M235.003 257.499H195.002C193.623 257.499 192.502 256.378 192.502 254.999V174.998C192.502 173.618 193.623 172.498 195.002 172.498H235.003C236.382 172.498 237.503 173.618 237.503 174.998V254.999C237.503 256.378 236.382 257.499 235.003 257.499ZM197.502 252.499H232.503V177.498H197.502V252.499Z" fill="#263238"/>
<path d="M235.003 257.499C234.087 257.499 233.208 256.993 232.769 256.119L192.768 176.118C192.153 174.883 192.651 173.384 193.887 172.764C195.122 172.149 196.623 172.644 197.244 173.884L237.244 253.885C237.857 255.118 237.359 256.62 236.123 257.24C235.757 257.413 235.379 257.499 235.003 257.499Z" fill="#263238"/>
<path d="M195.002 257.499C194.626 257.499 194.248 257.413 193.882 257.235C192.646 256.615 192.148 255.113 192.761 253.878L232.761 173.877C233.382 172.644 234.883 172.149 236.118 172.759C237.354 173.379 237.852 174.878 237.237 176.113L197.236 256.114C196.797 256.993 195.918 257.499 195.002 257.499Z" fill="#263238"/>
<path d="M175.002 262.499C173.623 262.499 172.502 261.378 172.502 259.999V237.498H87.501V259.999C87.501 261.378 86.3804 262.499 85.001 262.499C83.6216 262.499 82.501 261.378 82.501 259.999V234.998C82.501 233.619 83.6216 232.498 85.001 232.498H175.002C176.381 232.498 177.502 233.619 177.502 234.998V259.999C177.502 261.378 176.381 262.499 175.002 262.499Z" fill="#263238"/>
</svg>
