<svg width="232" height="154" viewBox="0 0 232 154" fill="none" xmlns="http://www.w3.org/2000/svg">
<rect x="0.631348" width="231.368" height="154" fill="white"/>
<path d="M139.956 46.9736H92.6748C88.9445 46.9736 85.9204 49.9977 85.9204 53.728V101.009C85.9204 104.739 88.9445 107.763 92.6748 107.763H139.956C143.686 107.763 146.71 104.739 146.71 101.009V53.728C146.71 49.9977 143.686 46.9736 139.956 46.9736Z" stroke="#4B4B4B" stroke-width="4" stroke-linecap="round" stroke-linejoin="round"/>
<path d="M104.495 70.614C107.293 70.614 109.561 68.346 109.561 65.5482C109.561 62.7505 107.293 60.4824 104.495 60.4824C101.697 60.4824 99.4292 62.7505 99.4292 65.5482C99.4292 68.346 101.697 70.614 104.495 70.614Z" stroke="#4B4B4B" stroke-width="4" stroke-linecap="round" stroke-linejoin="round"/>
<path d="M146.71 87.5002L129.824 70.6143L92.6753 107.763" stroke="#4B4B4B" stroke-width="4" stroke-linecap="round" stroke-linejoin="round"/>
</svg>
