<svg width="108" height="60" viewBox="0 0 108 60" fill="none" xmlns="http://www.w3.org/2000/svg">
<rect width="108" height="60" rx="8" fill="white"/>
<path fill-rule="evenodd" clip-rule="evenodd" d="M41.0476 30.6274C40.9965 31.5098 40.8945 32.196 40.7414 32.7353C40.5883 33.2745 40.3842 33.7156 40.027 34.1078V34.2058H46.6608V23.9118H41.5068L41.0476 30.6274ZM38.4451 36.0196V38.7646H36.3528V34.1078H37.4245C37.9348 33.8137 38.292 33.4215 38.4961 32.8333C38.7002 32.2451 38.8533 31.4607 38.9043 30.4804L39.4146 22H48.9061V34.1078H50.7432V38.7646H48.651V36.0196H38.4451ZM58.7549 28.0784C58.2956 27.5882 57.6832 27.3431 56.9178 27.3431C56.1524 27.3431 55.54 27.5882 55.0297 28.0784C54.5194 28.5686 54.2643 29.2059 54.2132 29.9902H59.5203C59.5203 29.2059 59.2652 28.5686 58.7549 28.0784ZM59.5203 33.0294H61.5615C61.4084 33.9607 60.8981 34.745 60.0816 35.3333C59.2652 35.9215 58.1935 36.2156 57.0199 36.2156C55.489 36.2156 54.2643 35.7254 53.3457 34.7941C52.4782 33.8627 52.019 32.5882 52.019 30.9706C52.019 29.3529 52.4782 28.0784 53.3457 27.098C54.2132 26.1176 55.4379 25.6274 56.9178 25.6274C58.3977 25.6274 59.5713 26.0686 60.3878 27C61.2553 27.9313 61.6636 29.1568 61.6636 30.7255V31.4607H54.2132V31.6078C54.2132 32.4902 54.4684 33.2254 54.9787 33.7647C55.489 34.3039 56.2034 34.549 57.0709 34.549C57.6833 34.549 58.1935 34.4019 58.6528 34.1568C59.0611 33.8627 59.3672 33.4705 59.5203 33.0294ZM66.4093 31.4117C66.3583 32 66.3073 32.5392 66.2052 33.0294C66.1031 33.5196 66.0011 33.9117 65.848 34.3529C65.6949 34.745 65.4908 35.0882 65.2356 35.3333C64.9805 35.5784 64.6743 35.7745 64.3171 35.9215C63.9599 36.0686 63.5517 36.1176 63.0924 36.1176C62.7862 36.1176 62.5311 36.0686 62.378 36.0196V34.1568C62.5821 34.2058 62.7352 34.2549 62.9393 34.2549C63.4496 34.2549 63.7558 34.0098 64.0109 33.5196C64.2661 33.0294 64.3681 32.2941 64.4702 31.3137L64.8274 25.8725H72.1246V36.0686H69.9814V27.4902H66.7155L66.4093 31.4117ZM79.3709 25.4804C82.4326 25.4804 84.8821 27.8823 84.8821 30.7745C84.8821 33.7156 82.3816 36.0686 79.3709 36.0686C76.3091 36.0686 73.8597 33.6666 73.8597 30.7745C73.8086 27.8823 76.3091 25.4804 79.3709 25.4804ZM79.3709 27.2451C77.3297 27.2451 75.6457 28.8627 75.6457 30.8235C75.6457 32.7843 77.3297 34.4019 79.3709 34.4019C81.4121 34.4019 83.096 32.7843 83.096 30.8235C83.045 28.8137 81.4121 27.2451 79.3709 27.2451Z" fill="url(#paint0_linear)"/>
<path fill-rule="evenodd" clip-rule="evenodd" d="M9.00018 51.5965H25.606V48.4184H11.9216V39.9092H9.00018V51.5965Z" fill="#E3E250"/>
<path fill-rule="evenodd" clip-rule="evenodd" d="M61.2783 51.5965H99.0002V39.9092H96.0788V48.4184H61.2783V51.5965Z" fill="#010005"/>
<path d="M61.278 48.418H52.4626V51.5961H61.278V48.418Z" fill="#E94744"/>
<path d="M52.4628 48.418H25.6064V51.5961H52.4628V48.418Z" fill="#42BEEE"/>
<path fill-rule="evenodd" clip-rule="evenodd" d="M30.2224 36.1176H24.0001V22H30.1682C31.5209 22 32.6571 22.3467 33.4687 22.9412C34.2803 23.5851 34.7132 24.4272 34.7132 25.517C34.7132 26.26 34.4426 26.9535 33.9016 27.548C33.3605 28.1424 32.7112 28.4891 31.9538 28.5882V28.6873C32.9818 28.7864 33.8475 29.1826 34.4968 29.7771C35.146 30.421 35.4707 31.1641 35.4707 32.1052C35.4707 33.3436 34.9837 34.3343 34.0639 35.0278C33.1441 35.7708 31.8455 36.1176 30.2224 36.1176ZM26.4349 23.7833V27.9938H29.1402C30.1682 27.9938 30.9798 27.7956 31.5209 27.4489C32.062 27.0526 32.3325 26.5573 32.3325 25.8142C32.3325 25.1703 32.1161 24.6749 31.6291 24.3282C31.1422 23.9814 30.4929 23.7833 29.6272 23.7833H26.4349ZM26.4349 34.3343H29.7354C30.8175 34.3343 31.6291 34.1362 32.1702 33.7399C32.7112 33.3436 33.0359 32.7492 33.0359 32.0062C33.0359 30.4706 31.8996 29.678 29.5731 29.678H26.4349V34.3343Z" fill="#FFD834"/>
<path fill-rule="evenodd" clip-rule="evenodd" d="M9 7H25.6058V10.1781H11.9214V18.6873H9V7Z" fill="#E3E250"/>
<path fill-rule="evenodd" clip-rule="evenodd" d="M61.2781 7H99V18.6873H96.0786V10.1781H61.2781V7Z" fill="#010005"/>
<path d="M61.2778 7H52.4624V10.1781H61.2778V7Z" fill="#E94744"/>
<path d="M52.4626 7H25.6063V10.1781H52.4626V7Z" fill="#42BEEE"/>
<defs>
<linearGradient id="paint0_linear" x1="41.8342" y1="30.4173" x2="66.5467" y2="30.4173" gradientUnits="userSpaceOnUse">
<stop stop-color="#00A3D4"/>
<stop offset="0.5" stop-color="#00A2D9"/>
<stop offset="1" stop-color="#010005"/>
</linearGradient>
</defs>
</svg>
