<svg width="273" height="199" viewBox="0 0 273 199" fill="none" xmlns="http://www.w3.org/2000/svg">
<path fill-rule="evenodd" clip-rule="evenodd" d="M0 135.276H50.3713V125.636H8.86162V99.8242H0V135.276Z" fill="#E3E250"/>
<path fill-rule="evenodd" clip-rule="evenodd" d="M158.576 135.276H273V99.8242H264.138V125.636H158.576V135.276Z" fill="#010005"/>
<path d="M158.576 125.636H131.836V135.276H158.576V125.636Z" fill="#E94744"/>
<path d="M131.836 125.636H50.3712V135.276H131.836V125.636Z" fill="#42BEEE"/>
<path fill-rule="evenodd" clip-rule="evenodd" d="M96.5448 72.1474C96.3893 74.9462 96.0784 77.123 95.612 78.8334C95.1456 80.5438 94.5237 81.9432 93.4354 83.1871V83.4981H113.646V50.8452H97.944L96.5448 72.1474ZM88.616 89.2512V97.9587H82.2418V83.1871H85.5066C87.0613 82.2542 88.1496 81.0103 88.7714 79.1444C89.3933 77.2785 89.8597 74.7907 90.0152 71.6809L91.5698 44.7811H120.487V83.1871H126.084V97.9587H119.709V89.2512H88.616ZM150.492 64.0619C149.093 62.507 147.227 61.7295 144.895 61.7295C142.563 61.7295 140.697 62.507 139.143 64.0619C137.588 65.6168 136.811 67.6381 136.655 70.126H152.824C152.824 67.6381 152.046 65.6168 150.492 64.0619ZM152.824 79.7664H159.043C158.576 82.7207 157.021 85.2085 154.534 87.0744C152.046 88.9403 148.782 89.8732 145.206 89.8732C140.542 89.8732 136.811 88.3183 134.012 85.364C131.369 82.4097 129.97 78.3669 129.97 73.2358C129.97 68.1046 131.369 64.0619 134.012 60.9521C136.655 57.8423 140.386 56.2874 144.895 56.2874C149.404 56.2874 152.979 57.6868 155.467 60.6411C158.11 63.5954 159.353 67.4827 159.353 72.4583V74.7907H136.655V75.2572C136.655 78.056 137.433 80.3883 138.987 82.0987C140.542 83.8091 142.718 84.5865 145.361 84.5865C147.227 84.5865 148.782 84.1201 150.181 83.3426C151.425 82.4097 152.357 81.1658 152.824 79.7664ZM173.812 74.6352C173.656 76.5011 173.501 78.2115 173.19 79.7664C172.879 81.3213 172.568 82.5652 172.102 83.9646C171.635 85.2085 171.013 86.2969 170.236 87.0744C169.459 87.8518 168.526 88.4738 167.438 88.9403C166.349 89.4067 165.106 89.5622 163.707 89.5622C162.774 89.5622 161.996 89.4067 161.53 89.2512V83.3426C162.152 83.4981 162.618 83.6536 163.24 83.6536C164.795 83.6536 165.728 82.8762 166.505 81.3213C167.282 79.7664 167.593 77.434 167.904 74.3242L168.992 57.0648H191.224V89.4067H184.695V62.196H174.745L173.812 74.6352ZM213.3 55.8209C222.628 55.8209 230.091 63.4399 230.091 72.6138C230.091 81.9432 222.473 89.4067 213.3 89.4067C203.972 89.4067 196.51 81.7877 196.51 72.6138C196.355 63.4399 203.972 55.8209 213.3 55.8209ZM213.3 61.4185C207.082 61.4185 201.951 66.5497 201.951 72.7693C201.951 78.9889 207.082 84.1201 213.3 84.1201C219.519 84.1201 224.65 78.9889 224.65 72.7693C224.494 66.3942 219.519 61.4185 213.3 61.4185Z" fill="url(#paint0_linear)"/>
<path fill-rule="evenodd" clip-rule="evenodd" d="M64.2079 89.2513H46.3292V44.9366H64.0525C67.9391 44.9366 71.2039 46.0251 73.5359 47.891C75.8679 49.9123 77.1117 52.5557 77.1117 55.9764C77.1117 58.3088 76.3343 60.4856 74.7797 62.3515C73.225 64.2174 71.3594 65.3058 69.1829 65.6168V65.9278C72.1367 66.2388 74.6242 67.4827 76.4898 69.3486C78.3554 71.3699 79.2882 73.7023 79.2882 76.6566C79.2882 80.5438 77.889 83.6536 75.2461 85.8305C72.6031 88.1628 68.8719 89.2513 64.2079 89.2513ZM53.3252 50.5343V63.7509H61.0986C64.0525 63.7509 66.3845 63.129 67.9391 62.0405C69.4938 60.7966 70.2711 59.2417 70.2711 56.9094C70.2711 54.888 69.6493 53.3331 68.2501 52.2447C66.8509 51.1562 64.9853 50.5343 62.4978 50.5343H53.3252ZM53.3252 83.6536H62.8087C65.9181 83.6536 68.2501 83.0317 69.8047 81.7878C71.3594 80.5438 72.2922 78.678 72.2922 76.3456C72.2922 71.5254 69.0274 69.0376 62.3423 69.0376H53.3252V83.6536Z" fill="#FFD834"/>
<path fill-rule="evenodd" clip-rule="evenodd" d="M41.1987 163.886C40.1105 164.975 38.8667 165.597 37.1566 165.597C35.4465 165.597 34.2027 164.975 33.1145 163.886C32.0262 162.798 31.5598 161.243 31.5598 159.222C31.5598 157.2 32.0262 155.645 33.1145 154.557C34.0473 153.469 35.4465 152.847 37.1566 152.847C38.8667 152.847 40.1105 153.469 41.1987 154.557C42.287 155.645 42.7534 157.2 42.7534 159.222C42.7534 161.243 42.287 162.798 41.1987 163.886ZM33.8918 163.264C34.6691 164.197 35.9129 164.819 37.1566 164.819C38.5558 164.819 39.6441 164.353 40.5769 163.264C41.3542 162.332 41.8206 160.932 41.8206 159.222C41.8206 157.511 41.3542 156.112 40.5769 155.179C39.7995 154.246 38.5558 153.624 37.1566 153.624C35.7574 153.624 34.6691 154.091 33.8918 155.179C33.1145 156.112 32.6481 157.511 32.6481 159.222C32.6481 160.932 33.1145 162.332 33.8918 163.264ZM53.7916 165.441V159.377H46.0182V165.441H45.0854V153.002H46.0182V158.6H53.7916V153.002H54.7244V165.441H53.7916ZM60.0102 160.31C60.0102 160.932 59.8548 161.554 59.8548 162.021C59.8548 162.487 59.6993 162.953 59.5438 163.42C59.3884 163.886 59.2329 164.353 59.0774 164.664C58.922 164.975 58.611 165.286 58.3001 165.441C57.9892 165.597 57.6782 165.752 57.2118 165.752C56.9009 165.752 56.7454 165.752 56.59 165.597V164.819C56.7454 164.819 57.0564 164.975 57.2118 164.975C57.5228 164.975 57.8337 164.819 58.1446 164.664C58.4556 164.508 58.611 164.042 58.7665 163.731C58.922 163.264 59.0774 162.798 59.0774 162.332C59.2329 161.865 59.2329 161.243 59.2329 160.466C59.3884 158.6 59.5438 156.267 59.6993 153.313H67.4727V165.752H66.5399V153.935H60.6321C60.3212 156.578 60.1657 158.6 60.0102 160.31ZM74.1577 164.819C75.4015 164.819 76.4897 164.353 77.2671 163.731C78.1999 162.953 78.5108 162.021 78.5108 160.932V159.066L74.3132 159.377C73.2249 159.533 72.2921 159.688 71.6703 160.31C71.0484 160.777 70.7375 161.399 70.7375 162.332C70.7375 163.109 71.0484 163.731 71.6703 164.353C72.4476 164.664 73.2249 164.819 74.1577 164.819ZM74.0023 165.597C72.7585 165.597 71.8257 165.286 71.0484 164.664C70.2711 164.042 69.9601 163.109 69.9601 162.176C69.9601 161.088 70.2711 160.31 71.0484 159.688C71.8257 159.066 72.914 158.755 74.3132 158.6L78.5108 158.289V157.2C78.5108 156.112 78.1999 155.334 77.578 154.712C76.9561 154.091 76.1788 153.78 74.9351 153.78C73.8468 153.78 73.0695 154.091 72.2921 154.557C71.6703 155.023 71.2039 155.801 71.0484 156.734H70.1156C70.2711 155.645 70.7375 154.712 71.5148 153.935C72.2921 153.313 73.5359 152.847 74.7796 152.847C76.1788 152.847 77.2671 153.158 78.0444 153.935C78.8217 154.712 79.2881 155.645 79.2881 157.045V165.441H78.3553V162.798C78.0444 163.575 77.4225 164.353 76.6452 164.819C76.0233 165.441 75.0905 165.597 74.0023 165.597ZM83.3303 165.441H82.3975V153.002H83.3303V164.042L91.1036 153.002H92.0364V165.441H91.1036V154.402L83.3303 165.441ZM84.4186 147.715H85.1959C85.1959 148.493 85.3514 148.959 85.8178 149.426C86.2842 149.892 86.906 150.048 87.6834 150.048C88.4607 150.048 89.0826 149.892 89.549 149.426C90.0154 148.959 90.1708 148.493 90.1708 147.715H90.9482C90.9482 148.648 90.6372 149.426 90.0154 149.892C89.3935 150.514 88.6162 150.825 87.6834 150.825C86.7506 150.825 85.9732 150.514 85.3514 150.048C84.7295 149.426 84.4186 148.648 84.4186 147.715ZM103.852 165.441V159.377H96.0786V165.441H95.1458V153.002H96.0786V158.6H103.852V153.002H104.785V165.441H103.852ZM115.356 158.911H107.583V157.978H115.356V158.911ZM126.706 165.441V153.935H119.088V165.597H118.155V153.158H127.638V165.597H126.706V165.441ZM132.924 160.31C132.924 160.932 132.769 161.554 132.769 162.021C132.769 162.487 132.613 162.953 132.458 163.42C132.302 163.886 132.147 164.353 131.991 164.664C131.836 164.975 131.525 165.286 131.214 165.441C130.903 165.597 130.592 165.752 130.126 165.752C129.815 165.752 129.659 165.752 129.504 165.597V164.819C129.659 164.819 129.97 164.975 130.126 164.975C130.437 164.975 130.748 164.819 131.059 164.664C131.37 164.508 131.525 164.042 131.681 163.731C131.836 163.264 131.991 162.798 131.991 162.332C132.147 161.865 132.147 161.243 132.147 160.466C132.302 158.6 132.458 156.267 132.613 153.313H140.387V165.752H139.454V153.935H133.546C133.08 156.578 132.924 158.6 132.924 160.31ZM147.072 164.819C148.315 164.819 149.404 164.353 150.181 163.731C151.114 162.953 151.425 162.021 151.425 160.932V159.066L147.227 159.377C146.139 159.533 145.206 159.688 144.584 160.31C143.962 160.777 143.651 161.399 143.651 162.332C143.651 163.109 143.962 163.731 144.584 164.353C145.206 164.664 145.983 164.819 147.072 164.819ZM146.916 165.597C145.673 165.597 144.74 165.286 143.962 164.664C143.185 164.042 142.874 163.109 142.874 162.176C142.874 161.088 143.185 160.31 143.962 159.688C144.74 159.066 145.828 158.755 147.227 158.6L151.425 158.289V157.2C151.425 156.112 151.114 155.334 150.492 154.712C149.87 154.091 149.093 153.78 147.849 153.78C146.761 153.78 145.983 154.091 145.206 154.557C144.584 155.023 144.118 155.801 143.962 156.734H143.03C143.185 155.645 143.651 154.712 144.429 153.935C145.206 153.313 146.45 152.847 147.694 152.847C149.093 152.847 150.181 153.158 150.958 153.935C151.736 154.712 152.202 155.645 152.202 157.045V165.441H151.269V162.798C150.958 163.575 150.337 164.353 149.559 164.819C148.782 165.441 147.849 165.597 146.916 165.597ZM163.862 153.002V153.935H159.354V165.597H158.421V153.935H153.912V153.158H163.862V153.002ZM171.169 164.819V153.624C169.459 153.624 168.06 154.246 166.972 155.179C165.883 156.112 165.417 157.511 165.417 159.222C165.417 160.932 165.883 162.176 166.972 163.264C168.06 164.353 169.459 164.819 171.169 164.819ZM177.854 159.222C177.854 157.511 177.388 156.267 176.3 155.179C175.211 154.246 173.812 153.624 172.102 153.624V164.819C173.812 164.819 175.211 164.197 176.3 163.264C177.388 162.332 177.854 160.932 177.854 159.222ZM171.169 165.752C169.148 165.752 167.593 165.13 166.35 164.042C165.106 162.953 164.484 161.399 164.484 159.377C164.484 157.511 165.106 155.956 166.35 154.712C167.593 153.624 169.148 153.002 171.169 152.847V148.648H172.102V152.847C174.123 152.847 175.678 153.469 176.921 154.557C178.165 155.645 178.787 157.2 178.787 159.222C178.787 161.088 178.165 162.642 176.921 163.886C175.678 164.975 174.123 165.597 172.102 165.597V169.484H171.169V165.752ZM189.981 163.886C188.892 164.975 187.649 165.597 185.938 165.597C184.228 165.597 182.985 164.975 181.896 163.886C180.808 162.798 180.342 161.243 180.342 159.222C180.342 157.2 180.808 155.645 181.896 154.557C182.985 153.469 184.228 152.847 185.938 152.847C187.649 152.847 188.892 153.469 189.981 154.557C191.069 155.645 191.535 157.2 191.535 159.222C191.535 161.243 191.069 162.798 189.981 163.886ZM182.674 163.264C183.451 164.197 184.695 164.819 185.938 164.819C187.338 164.819 188.426 164.353 189.359 163.264C190.136 162.332 190.602 160.932 190.602 159.222C190.602 157.511 190.136 156.112 189.359 155.179C188.581 154.246 187.338 153.624 185.938 153.624C184.539 153.624 183.451 154.091 182.674 155.179C181.896 156.112 181.43 157.511 181.43 159.222C181.43 160.932 181.896 162.332 182.674 163.264ZM199.464 152.847C201.019 152.847 202.263 153.469 203.195 154.557C204.128 155.801 204.595 157.356 204.595 159.222C204.595 161.088 204.128 162.642 203.195 163.886C202.263 165.13 201.019 165.597 199.464 165.597C198.376 165.597 197.443 165.286 196.51 164.664C195.733 164.042 195.111 163.109 194.8 162.176V169.484H193.867V153.002H194.8V156.267C195.111 155.179 195.733 154.402 196.51 153.78C197.443 153.158 198.376 152.847 199.464 152.847ZM199.309 164.819C200.552 164.819 201.641 164.353 202.573 163.264C203.351 162.176 203.817 160.932 203.817 159.222C203.817 157.511 203.351 156.267 202.573 155.179C201.796 154.091 200.708 153.624 199.309 153.624C197.909 153.624 196.821 154.091 196.044 155.179C195.267 156.267 194.8 157.511 194.8 159.222C194.8 160.932 195.267 162.176 196.044 163.264C196.977 164.353 198.065 164.819 199.309 164.819ZM208.015 165.441H207.082V153.002H208.17L213.612 164.197L219.053 153.002H220.141V165.441H219.208V154.712L214.078 165.286H213.301L208.17 154.712V165.441H208.015ZM226.982 164.819C228.226 164.819 229.314 164.353 230.091 163.731C231.024 162.953 231.335 162.021 231.335 160.932V159.066L227.137 159.377C226.049 159.533 225.116 159.688 224.494 160.31C223.872 160.777 223.562 161.399 223.562 162.332C223.562 163.109 223.872 163.731 224.494 164.353C225.116 164.664 225.894 164.819 226.982 164.819ZM226.826 165.597C225.583 165.597 224.65 165.286 223.872 164.664C223.095 164.042 222.784 163.109 222.784 162.176C222.784 161.088 223.095 160.31 223.872 159.688C224.65 159.066 225.738 158.755 227.137 158.6L231.335 158.289V157.2C231.335 156.112 231.024 155.334 230.402 154.712C229.78 154.091 229.003 153.78 227.759 153.78C226.671 153.78 225.738 154.091 225.116 154.557C224.494 155.023 224.028 155.801 223.872 156.734H222.94C223.095 155.645 223.562 154.712 224.339 153.935C225.116 153.313 226.36 152.847 227.604 152.847C229.003 152.847 230.091 153.158 230.868 153.935C231.646 154.712 232.112 155.645 232.112 157.045V165.441H231.179V162.798C230.868 163.575 230.247 164.353 229.469 164.819C228.692 165.441 227.759 165.597 226.826 165.597ZM41.1987 193.896V183.012H34.9801C34.8246 185.655 34.6691 187.676 34.5137 189.387C34.3582 191.564 33.8918 193.119 33.2699 193.74H41.1987V193.896ZM32.0262 197.939H31.0934V193.896H32.0262C32.8035 193.429 33.2699 191.875 33.5809 189.387C33.7363 186.899 34.0473 184.567 34.0473 182.234H42.1315V193.896H44.1526V197.939H43.2198V194.673H31.8707V197.939H32.0262ZM48.6611 189.387C48.6611 190.009 48.5057 190.631 48.5057 191.097C48.5057 191.564 48.3502 192.03 48.1948 192.497C48.0393 192.963 47.8838 193.429 47.7284 193.74C47.5729 194.051 47.2619 194.362 46.951 194.518C46.6401 194.673 46.3291 194.829 45.8627 194.829C45.5518 194.829 45.3963 194.829 45.2409 194.673V193.896C45.3963 193.896 45.7073 194.051 45.8627 194.051C46.1737 194.051 46.4846 193.896 46.7955 193.74C47.1065 193.585 47.2619 193.119 47.4174 192.808C47.5729 192.341 47.7284 191.875 47.7284 191.408C47.8838 190.942 47.8838 190.32 47.8838 189.542C48.0393 187.676 48.1948 185.344 48.3502 182.39H56.1236V194.829H55.1908V183.167H49.283C48.9721 185.655 48.8166 187.832 48.6611 189.387ZM62.6532 188.92H65.918V183.167H62.6532C61.5649 183.167 60.7876 183.478 60.1657 183.945C59.5438 184.411 59.2329 185.189 59.2329 186.121C59.2329 187.054 59.5438 187.676 60.1657 188.143C60.943 188.609 61.7204 188.92 62.6532 188.92ZM66.0735 194.673V189.698H62.9641L59.2329 194.673H58.1446L62.0313 189.542C60.943 189.387 60.1657 189.076 59.5438 188.454C58.922 187.832 58.611 187.054 58.611 185.966C58.611 184.878 58.922 183.945 59.6993 183.167C60.4766 182.545 61.5649 182.079 62.8086 182.079H67.0063V194.518H66.0735V194.673ZM75.8679 194.673H74.9351V182.234H75.8679V193.274L83.6412 182.234H84.574V194.673H83.6412V183.634L75.8679 194.673ZM96.234 194.673V188.609H88.4607V194.673H87.5279V182.234H88.4607V187.832H96.234V182.234H97.1668V194.673H96.234ZM104.785 183.012H101.054V187.832H104.474C105.407 187.832 106.184 187.676 106.65 187.21C107.117 186.743 107.428 186.121 107.428 185.344C107.428 184.567 107.117 184.1 106.65 183.634C106.339 183.323 105.718 183.012 104.785 183.012ZM104.629 188.609H101.054V193.896H104.785C105.873 193.896 106.806 193.74 107.428 193.274C108.05 192.808 108.36 192.186 108.36 191.253C108.36 190.475 108.05 189.853 107.428 189.387C106.65 188.92 105.873 188.609 104.629 188.609ZM100.121 194.673V182.234H104.785C105.873 182.234 106.806 182.545 107.583 183.012C108.205 183.478 108.516 184.256 108.516 185.189C108.516 185.966 108.36 186.588 107.894 187.054C107.428 187.521 106.961 187.987 106.184 187.987C107.117 188.143 107.739 188.298 108.36 188.92C108.982 189.387 109.293 190.164 109.293 190.942C109.293 192.03 108.982 192.963 108.205 193.585C107.428 194.207 106.339 194.518 104.94 194.518H100.121V194.673ZM116.289 182.856C115.046 182.856 113.957 183.323 113.18 184.256C112.403 185.189 111.936 186.432 111.781 187.832H120.642C120.642 186.432 120.176 185.189 119.399 184.256C118.777 183.323 117.688 182.856 116.289 182.856ZM120.642 191.253H121.575C121.42 192.341 120.798 193.274 119.865 193.896C118.932 194.518 117.844 194.984 116.445 194.984C114.735 194.984 113.335 194.362 112.403 193.274C111.47 192.186 110.848 190.631 110.848 188.609C110.848 186.743 111.314 185.189 112.403 183.945C113.335 182.701 114.735 182.234 116.289 182.234C117.844 182.234 119.243 182.856 120.176 183.945C121.109 185.033 121.575 186.432 121.575 188.298V188.765H111.936C111.936 190.475 112.403 191.719 113.18 192.652C113.957 193.585 115.201 194.051 116.6 194.051C117.688 194.051 118.621 193.74 119.399 193.274C120.021 192.652 120.487 192.03 120.642 191.253ZM133.857 185.81H132.924C132.613 185.033 132.147 184.256 131.525 183.789C130.748 183.323 129.97 183.012 128.882 183.012C127.483 183.012 126.395 183.478 125.617 184.567C124.84 185.499 124.374 186.899 124.374 188.609C124.374 190.32 124.84 191.719 125.617 192.652C126.395 193.585 127.483 194.207 128.882 194.207C129.815 194.207 130.748 193.896 131.37 193.429C132.147 192.963 132.613 192.341 132.769 191.408H133.702C133.391 192.497 132.924 193.274 131.991 193.896C131.059 194.518 129.97 194.829 128.882 194.829C127.172 194.829 125.928 194.207 124.84 193.118C123.907 192.03 123.285 190.475 123.285 188.454C123.285 186.432 123.752 184.878 124.84 183.789C125.773 182.701 127.172 182.079 128.882 182.079C130.126 182.079 131.214 182.39 132.147 183.167C132.924 183.789 133.546 184.722 133.857 185.81ZM144.429 182.234V183.012H139.92V194.673H138.987V183.012H134.479V182.234H144.429ZM147.227 194.673H146.294V182.234H147.227V193.274L155.001 182.234H155.933V194.673H155.001V183.634L147.227 194.673ZM164.64 182.079C166.194 182.079 167.438 182.701 168.371 183.789C169.304 185.033 169.77 186.588 169.77 188.454C169.77 190.32 169.304 191.875 168.371 193.118C167.438 194.362 166.194 194.829 164.64 194.829C163.551 194.829 162.618 194.518 161.686 193.896C160.908 193.274 160.286 192.341 159.976 191.408V198.716H159.043V182.234H159.976V185.5C160.286 184.411 160.908 183.634 161.686 183.012C162.463 182.39 163.551 182.079 164.64 182.079ZM164.484 194.051C165.728 194.051 166.816 193.585 167.749 192.497C168.526 191.408 168.993 190.164 168.993 188.454C168.993 186.743 168.526 185.499 167.749 184.411C166.972 183.323 165.883 182.856 164.484 182.856C163.085 182.856 161.997 183.323 161.219 184.411C160.442 185.499 159.976 186.743 159.976 188.454C159.976 190.164 160.442 191.408 161.219 192.497C162.152 193.429 163.24 194.051 164.484 194.051ZM181.119 193.118C180.031 194.207 178.787 194.829 177.077 194.829C175.367 194.829 174.123 194.207 173.035 193.118C171.946 192.03 171.48 190.475 171.48 188.454C171.48 186.432 171.946 184.878 173.035 183.789C173.968 182.701 175.367 182.079 177.077 182.079C178.787 182.079 180.031 182.701 181.119 183.789C182.207 184.878 182.674 186.432 182.674 188.454C182.674 190.475 182.207 192.03 181.119 193.118ZM173.812 192.497C174.589 193.429 175.833 194.051 177.077 194.051C178.476 194.051 179.564 193.585 180.497 192.497C181.274 191.564 181.741 190.164 181.741 188.454C181.741 186.743 181.274 185.344 180.497 184.411C179.72 183.478 178.476 182.856 177.077 182.856C175.678 182.856 174.589 183.323 173.812 184.411C173.035 185.344 172.568 186.743 172.568 188.454C172.568 190.164 173.035 191.564 173.812 192.497ZM189.514 183.012H185.938V187.832H189.359C190.292 187.832 191.069 187.676 191.535 187.21C192.002 186.743 192.313 186.121 192.313 185.344C192.313 184.567 192.002 184.1 191.535 183.634C191.224 183.323 190.447 183.012 189.514 183.012ZM189.514 188.609H185.938V193.896H189.67C190.758 193.896 191.691 193.74 192.313 193.274C192.934 192.808 193.245 192.186 193.245 191.253C193.245 190.475 192.934 189.853 192.313 189.387C191.535 188.92 190.603 188.609 189.514 188.609ZM185.006 194.673V182.234H189.67C190.758 182.234 191.691 182.545 192.468 183.012C193.09 183.478 193.401 184.256 193.401 185.189C193.401 185.966 193.245 186.588 192.779 187.054C192.313 187.521 191.846 187.987 191.069 187.987C192.002 188.143 192.624 188.298 193.245 188.92C193.867 189.387 194.178 190.164 194.178 190.942C194.178 192.03 193.867 192.963 193.09 193.585C192.313 194.207 191.224 194.518 189.825 194.518H185.006V194.673ZM200.241 194.051C201.485 194.051 202.573 193.585 203.351 192.963C204.284 192.186 204.595 191.253 204.595 190.164V188.143L200.397 188.454C199.309 188.609 198.376 188.765 197.754 189.387C197.132 189.853 196.821 190.475 196.821 191.408C196.821 192.186 197.132 192.808 197.754 193.429C198.376 193.74 199.153 194.051 200.241 194.051ZM200.086 194.829C198.842 194.829 197.909 194.518 197.132 193.896C196.355 193.274 196.044 192.341 196.044 191.408C196.044 190.32 196.355 189.542 197.132 188.92C197.909 188.298 198.998 187.987 200.397 187.832L204.595 187.521V186.432C204.595 185.344 204.284 184.567 203.662 183.945C203.04 183.323 202.263 183.012 201.019 183.012C199.931 183.012 198.998 183.323 198.376 183.789C197.754 184.256 197.288 185.033 197.132 185.966H196.199C196.355 184.878 196.821 183.945 197.599 183.167C198.376 182.545 199.62 182.079 200.863 182.079C202.263 182.079 203.351 182.39 204.128 183.167C204.905 183.945 205.372 184.878 205.372 186.277V194.673H204.439V192.03C204.128 192.808 203.506 193.585 202.729 194.051C201.952 194.518 201.019 194.829 200.086 194.829ZM217.187 194.673V188.609H209.414V194.673H208.481V182.234H209.414V187.832H217.187V182.234H218.12V194.673H217.187ZM222.007 194.673H221.074V182.234H222.007V193.274L229.78 182.234H230.713V194.673H229.78V183.634L222.007 194.673ZM237.554 188.92H240.818V183.167H237.554C236.465 183.167 235.688 183.478 235.066 183.945C234.444 184.411 234.133 185.189 234.133 186.121C234.133 187.054 234.444 187.676 235.066 188.143C235.688 188.609 236.465 188.92 237.554 188.92ZM240.818 194.673V189.698H237.709L233.978 194.673H232.89L236.776 189.542C235.688 189.387 234.911 189.076 234.289 188.454C233.667 187.832 233.356 187.054 233.356 185.966C233.356 184.878 233.667 183.945 234.444 183.167C235.222 182.545 236.31 182.079 237.554 182.079H241.751V194.518H240.818V194.673Z" fill="white"/>
<path d="M158.576 125.636H131.836V135.276H158.576V125.636Z" fill="#E94744"/>
<path fill-rule="evenodd" clip-rule="evenodd" d="M0 0H50.3713V9.64037H8.86162V35.4517H0V0Z" fill="#E3E250"/>
<path fill-rule="evenodd" clip-rule="evenodd" d="M158.576 0H273V35.4517H264.138V9.64037H158.576V0Z" fill="#010005"/>
<path d="M158.576 0H131.836V9.64037H158.576V0Z" fill="#E94744"/>
<path d="M131.836 0H50.3712V9.64037H131.836V0Z" fill="#42BEEE"/>
<defs>
<linearGradient id="paint0_linear" x1="98.9413" y1="71.4808" x2="174.23" y2="71.4808" gradientUnits="userSpaceOnUse">
<stop stop-color="#00A3D4"/>
<stop offset="0.5" stop-color="#00A2D9"/>
<stop offset="1" stop-color="#010005"/>
</linearGradient>
</defs>
</svg>
