<svg id="_1" data-name="1" xmlns="http://www.w3.org/2000/svg" xmlns:xlink="http://www.w3.org/1999/xlink" viewBox="0 0 175.57 127.81"><defs><style>.cls-1{fill:#e3e250;}.cls-1,.cls-2,.cls-5,.cls-6,.cls-7{fill-rule:evenodd;}.cls-2{fill:#000003;}.cls-3{fill:#e94744;}.cls-4{fill:#42beee;}.cls-5{fill:url(#GradientFill_1);}.cls-6{fill:#ffd834;}.cls-7{fill:#1a1a18;}</style><linearGradient id="GradientFill_1" x1="126.8" y1="85.82" x2="175.23" y2="85.82" gradientUnits="userSpaceOnUse"><stop offset="0" stop-color="#00a3d4"/><stop offset="0.5" stop-color="#00a2d9"/><stop offset="1" stop-color="#000003"/></linearGradient></defs><polygon class="cls-1" points="0 87.01 32.37 87.01 32.37 80.79 5.7 80.79 5.7 64.22 0 64.22 0 87.01"/><polygon class="cls-2" points="102.03 87.01 175.57 87.01 175.57 64.22 169.87 64.22 169.87 80.79 102.03 80.79 102.03 87.01"/><rect class="cls-3" x="84.81" y="80.79" width="17.22" height="6.21"/><rect class="cls-4" x="32.37" y="80.79" width="52.44" height="6.21"/><path class="cls-5" d="M125.26,86.23a24.75,24.75,0,0,1-.57,4.28,6.92,6.92,0,0,1-1.39,2.76v.16h13V72.56H126.12l-.86,13.67Zm-5.08,11v5.63h-4.07V93.43h2.07a4.94,4.94,0,0,0,2.13-2.63,17,17,0,0,0,.84-4.76l1-17.3h18.58V93.43h3.56v9.46h-4.06V97.26ZM160,81a4.67,4.67,0,0,0-3.61-1.51,4.89,4.89,0,0,0-3.68,1.52,6,6,0,0,0-1.62,3.9h10.4A5.8,5.8,0,0,0,160,81Zm1.47,10.11h4a7,7,0,0,1-2.92,4.69,9.88,9.88,0,0,1-6,1.82,9.26,9.26,0,0,1-7.18-2.88A11.19,11.19,0,0,1,146.75,87a11.56,11.56,0,0,1,2.62-7.89,8.86,8.86,0,0,1,7-3,8.74,8.74,0,0,1,6.84,2.82,10.93,10.93,0,0,1,2.53,7.56v1.46H151.06v.26a6.18,6.18,0,0,0,1.52,4.37,5.33,5.33,0,0,0,4.08,1.64,5.58,5.58,0,0,0,3.08-.83,4.09,4.09,0,0,0,1.72-2.22Zm13.47-3.35a32.43,32.43,0,0,1-.37,3.27,14.76,14.76,0,0,1-.75,2.66,7,7,0,0,1-1.21,2A5,5,0,0,1,170.83,97a6.21,6.21,0,0,1-2.44.44,4,4,0,0,1-1.44-.21V93.48a3.79,3.79,0,0,0,1.12.16,2.18,2.18,0,0,0,2.09-1.54,13.43,13.43,0,0,0,.87-4.49l.72-11.14h14.41V97.26h-4.25V79.85H175.5l-.57,8Zm25.41-12.06a10.84,10.84,0,1,1-10.85,10.84,10.85,10.85,0,0,1,10.85-10.84Zm0,3.58a7.26,7.26,0,1,0,7.26,7.26A7.26,7.26,0,0,0,200.34,79.32Z" transform="translate(-63.16 -39.85)"/><path class="cls-6" d="M104.45,97.26H93V68.74h11.38a9.18,9.18,0,0,1,6.09,2,6.47,6.47,0,0,1,2.29,5.17,6.18,6.18,0,0,1-1.48,4.06,5.76,5.76,0,0,1-3.6,2.14v.17a7.36,7.36,0,0,1,4.7,2.23,6.66,6.66,0,0,1,1.78,4.74,7.24,7.24,0,0,1-2.59,5.91,10.85,10.85,0,0,1-7.13,2.15Zm-7-24.9v8.52h5a7.23,7.23,0,0,0,4.4-1.15,3.81,3.81,0,0,0,1.54-3.26,3.7,3.7,0,0,0-1.3-3,5.74,5.74,0,0,0-3.72-1.07Zm0,21.28h6.11a7.33,7.33,0,0,0,4.54-1.2,4.17,4.17,0,0,0,1.57-3.52c0-3.11-2.13-4.66-6.37-4.66H97.43Z" transform="translate(-63.16 -39.85)"/><path class="cls-7" d="M89.7,145.28a3.3,3.3,0,0,1-2.59,1.11,3.27,3.27,0,0,1-2.58-1.11,5.14,5.14,0,0,1,0-6,3.27,3.27,0,0,1,2.58-1.11,3.3,3.3,0,0,1,2.59,1.11,5.1,5.1,0,0,1,0,6ZM85,144.89a2.9,2.9,0,0,0,4.31,0,4.63,4.63,0,0,0,0-5.23,2.9,2.9,0,0,0-4.31,0,4.63,4.63,0,0,0,0,5.23Zm12.81,1.38v-3.88h-5v3.88h-.59v-8h.59v3.6h5v-3.6h.59v8Zm4-3.35c0,.42-.07.78-.12,1.09a6.1,6.1,0,0,1-.21.92,2.63,2.63,0,0,1-.33.75,1.41,1.41,0,0,1-.49.48,1.35,1.35,0,0,1-.7.18,1,1,0,0,1-.42-.08v-.54a1.51,1.51,0,0,0,.41.06.75.75,0,0,0,.55-.21,1.57,1.57,0,0,0,.38-.63,7.38,7.38,0,0,0,.23-.9c0-.32.1-.71.14-1.16.11-1.19.21-2.72.31-4.6h4.95v8h-.59V138.8h-3.82c-.1,1.71-.19,3.08-.29,4.12Zm9.1,3a2.92,2.92,0,0,0,2-.75,2.36,2.36,0,0,0,.83-1.82v-1.18l-2.66.19a3.18,3.18,0,0,0-1.72.55,1.53,1.53,0,0,0-.59,1.26,1.58,1.58,0,0,0,.59,1.26,2.4,2.4,0,0,0,1.53.49Zm-.08.52a2.81,2.81,0,0,1-1.9-.63,2,2,0,0,1-.74-1.64,2,2,0,0,1,.71-1.61,3.77,3.77,0,0,1,2.11-.69l2.75-.19v-.71a2.2,2.2,0,0,0-.59-1.63,2.23,2.23,0,0,0-1.66-.59,2.58,2.58,0,0,0-1.67.5,2.13,2.13,0,0,0-.79,1.4h-.58a2.54,2.54,0,0,1,.93-1.78,3.29,3.29,0,0,1,2.12-.66,2.87,2.87,0,0,1,2.08.73,2.61,2.61,0,0,1,.76,2v5.4h-.58v-1.71h0a2.66,2.66,0,0,1-1.13,1.32,3.34,3.34,0,0,1-1.81.51Zm6-.12h-.59v-8h.59v7.06h0l5-7.06h.6v8h-.6v-7.05h0l-5,7.05Zm.68-11.41h.5a1.51,1.51,0,0,0,.43,1.11,1.87,1.87,0,0,0,2.34,0,1.51,1.51,0,0,0,.43-1.11h.49a1.82,1.82,0,0,1-.56,1.42,2.51,2.51,0,0,1-3.06,0,1.83,1.83,0,0,1-.57-1.42Zm12.49,11.41v-3.88h-5v3.88h-.6v-8h.6v3.6h5v-3.6h.59v8Zm7.4-4.18h-5v-.55h5v.55Zm7.28,4.18V138.8h-4.91v7.47h-.6v-8h6.11v8Zm4-3.35c0,.42-.07.78-.12,1.09a6.1,6.1,0,0,1-.21.92,2.63,2.63,0,0,1-.33.75,1.41,1.41,0,0,1-.49.48,1.35,1.35,0,0,1-.7.18,1,1,0,0,1-.42-.08v-.54a1.45,1.45,0,0,0,.41.06.75.75,0,0,0,.55-.21,1.57,1.57,0,0,0,.38-.63,7.38,7.38,0,0,0,.23-.9c.05-.32.1-.71.14-1.16.11-1.19.21-2.72.31-4.6h4.95v8h-.59V138.8H148.9c-.1,1.71-.19,3.08-.29,4.12Zm9.1,3a2.92,2.92,0,0,0,2-.75,2.36,2.36,0,0,0,.83-1.82v-1.18l-2.66.19a3.18,3.18,0,0,0-1.72.55,1.53,1.53,0,0,0-.59,1.26,1.58,1.58,0,0,0,.59,1.26,2.38,2.38,0,0,0,1.53.49Zm-.08.52a2.86,2.86,0,0,1-1.91-.63,2.06,2.06,0,0,1-.73-1.64,2,2,0,0,1,.71-1.61,3.77,3.77,0,0,1,2.11-.69l2.75-.19v-.71a2.2,2.2,0,0,0-.59-1.63,2.23,2.23,0,0,0-1.66-.59,2.58,2.58,0,0,0-1.67.5,2.13,2.13,0,0,0-.79,1.4h-.58a2.54,2.54,0,0,1,.93-1.78,3.28,3.28,0,0,1,2.12-.66,2.87,2.87,0,0,1,2.08.73,2.61,2.61,0,0,1,.76,2v5.4h-.58v-1.71h0a2.66,2.66,0,0,1-1.13,1.32,3.34,3.34,0,0,1-1.81.51Zm10.92-8.11v.52h-2.91v7.47h-.59V138.8h-2.89v-.52Zm4.76,7.6v-7.17a3.92,3.92,0,0,0-2.69,1,3.4,3.4,0,0,0-1,2.59,3.36,3.36,0,0,0,1,2.57,3.93,3.93,0,0,0,2.69,1Zm4.26-3.59a3.37,3.37,0,0,0-1-2.57,3.9,3.9,0,0,0-2.67-1v7.17a3.85,3.85,0,0,0,2.67-1,3.39,3.39,0,0,0,1-2.58Zm-4.26,4.11a4.55,4.55,0,0,1-3.13-1.14,4.36,4.36,0,0,1,0-5.93,4.6,4.6,0,0,1,3.12-1.15v-2.66h.58v2.66a4.55,4.55,0,0,1,3.11,1.15,4.34,4.34,0,0,1,0,5.92,4.43,4.43,0,0,1-3.1,1.15v2.49h-.58V146.4Zm12.1-1.12a3.55,3.55,0,0,1-5.16,0,5.1,5.1,0,0,1,0-6,3.55,3.55,0,0,1,5.16,0,5.1,5.1,0,0,1,0,6Zm-4.73-.39a2.65,2.65,0,0,0,2.15,1,2.68,2.68,0,0,0,2.15-1,4.63,4.63,0,0,0,0-5.23,2.68,2.68,0,0,0-2.15-1,2.65,2.65,0,0,0-2.15,1,4.63,4.63,0,0,0,0,5.23Zm10.79-6.73a3,3,0,0,1,2.44,1.14,5.18,5.18,0,0,1,0,5.95,3,3,0,0,1-2.44,1.14,2.93,2.93,0,0,1-1.87-.63,3,3,0,0,1-1.08-1.59h0v4.72h-.6V138.28h.56v2.15h0a3.1,3.1,0,0,1,1.09-1.63,2.9,2.9,0,0,1,1.89-.64Zm-.07,7.69a2.53,2.53,0,0,0,2.06-1,4.64,4.64,0,0,0,0-5.18,2.51,2.51,0,0,0-2.06-1,2.59,2.59,0,0,0-2.1,1,4.53,4.53,0,0,0,0,5.17,2.59,2.59,0,0,0,2.1,1Zm5.56.42h-.59v-8h.69l3.48,7.22h0l3.47-7.22h.67v8h-.59v-6.88h0l-3.31,6.82h-.47L197,139.39h0v6.88Zm12.16-.4a2.88,2.88,0,0,0,2-.75,2.34,2.34,0,0,0,.84-1.82v-1.18l-2.66.19a3.15,3.15,0,0,0-1.72.55,1.51,1.51,0,0,0-.6,1.26,1.56,1.56,0,0,0,.6,1.26,2.38,2.38,0,0,0,1.53.49Zm-.08.52a2.84,2.84,0,0,1-1.91-.63,2.07,2.07,0,0,1-.74-1.64,2,2,0,0,1,.72-1.61,3.74,3.74,0,0,1,2.11-.69l2.75-.19v-.71a2.17,2.17,0,0,0-.6-1.63,2.21,2.21,0,0,0-1.65-.59,2.62,2.62,0,0,0-1.68.5,2.16,2.16,0,0,0-.78,1.4h-.58a2.54,2.54,0,0,1,.93-1.78,3.28,3.28,0,0,1,2.12-.66,2.86,2.86,0,0,1,2.07.73,2.62,2.62,0,0,1,.77,2v5.4H212v-1.71h0a2.66,2.66,0,0,1-1.13,1.32,3.34,3.34,0,0,1-1.81.51ZM89.68,164.52v-7h-4c-.1,1.66-.2,3-.3,4.13a5.33,5.33,0,0,1-.79,2.8v0Zm-5.94,2.63h-.57v-2.63h.63c.52-.34.85-1.3,1-2.87s.25-3.12.32-4.6h5.16v7.47h1.32v2.63H91V165H83.74v2.12Zm10.69-5.46q-.06.62-.12,1.08a7.77,7.77,0,0,1-.21.93,2.76,2.76,0,0,1-.33.75,1.47,1.47,0,0,1-.49.47,1.38,1.38,0,0,1-.7.18,1,1,0,0,1-.42-.07v-.55a1.18,1.18,0,0,0,.41.07.81.81,0,0,0,.55-.21,1.46,1.46,0,0,0,.37-.63,4.94,4.94,0,0,0,.23-.9,10.26,10.26,0,0,0,.14-1.16c.12-1.19.22-2.72.32-4.6h4.95v8h-.59v-7.47H94.71c-.09,1.71-.19,3.09-.28,4.13Zm9.06-.39h2.14v-3.74h-2.14a2.33,2.33,0,0,0-1.58.51,1.73,1.73,0,0,0-.58,1.38,1.66,1.66,0,0,0,.59,1.35,2.36,2.36,0,0,0,1.57.5Zm2.14,3.73v-3.21h-2l-2.4,3.21h-.71l2.47-3.28a2.58,2.58,0,0,1-1.63-.73,2.09,2.09,0,0,1-.61-1.56,2.22,2.22,0,0,1,.75-1.76,3,3,0,0,1,2-.65h2.73v8Zm6.3,0h-.59v-8h.59v7.06h0l5.05-7.06h.59v8H117V158h0l-5,7.05Zm13.17,0v-3.87h-5V165h-.59v-8h.59v3.59h5v-3.59h.59v8Zm5.44-7.46H128.2v3.08h2.25a2.19,2.19,0,0,0,1.44-.43,1.44,1.44,0,0,0,.52-1.17,1.3,1.3,0,0,0-.49-1.09,2.18,2.18,0,0,0-1.38-.39Zm0,3.59H128.2v3.36h2.41a2.69,2.69,0,0,0,1.66-.44,1.54,1.54,0,0,0,.56-1.29,1.39,1.39,0,0,0-.62-1.22,3.12,3.12,0,0,0-1.72-.41ZM127.61,165v-8h3a2.72,2.72,0,0,1,1.77.52A1.75,1.75,0,0,1,133,159a1.89,1.89,0,0,1-.41,1.22,1.82,1.82,0,0,1-1.1.64v0a2.34,2.34,0,0,1,1.38.58,1.75,1.75,0,0,1,.56,1.35,2,2,0,0,1-.73,1.65,3.28,3.28,0,0,1-2.06.57Zm10.4-7.58a2.63,2.63,0,0,0-2,.88,3.52,3.52,0,0,0-.85,2.31h5.69a3.36,3.36,0,0,0-.78-2.3,2.57,2.57,0,0,0-2-.89Zm2.73,5.35h.6a2.74,2.74,0,0,1-1.08,1.7,3.53,3.53,0,0,1-2.18.66,3.3,3.3,0,0,1-2.61-1.1,4.4,4.4,0,0,1-1-3,4.46,4.46,0,0,1,1-3,3.42,3.42,0,0,1,5-.07,4.08,4.08,0,0,1,.94,2.81v.34h-6.32v0a3.77,3.77,0,0,0,.8,2.54,2.75,2.75,0,0,0,2.16.92,2.9,2.9,0,0,0,1.77-.51,2.18,2.18,0,0,0,.89-1.32Zm8.49-3.5h-.6a2.4,2.4,0,0,0-.92-1.33,2.7,2.7,0,0,0-1.65-.51,2.62,2.62,0,0,0-2.13,1,4.71,4.71,0,0,0,0,5.22,2.6,2.6,0,0,0,2.14,1,2.79,2.79,0,0,0,1.62-.47,2.26,2.26,0,0,0,.92-1.25h.6a2.85,2.85,0,0,1-1.1,1.64,3.41,3.41,0,0,1-2.05.62,3.23,3.23,0,0,1-2.57-1.11,5.21,5.21,0,0,1,0-6,3.49,3.49,0,0,1,4.63-.44,2.92,2.92,0,0,1,1.1,1.7Zm6.82-2.25v.51h-2.9V165h-.59v-7.47h-2.9v-.51Zm1.85,8h-.59v-8h.59v7.06h0l5-7.06h.6v8H163V158h0l-5,7.05Zm11.15-8.11a3.07,3.07,0,0,1,2.45,1.14,5.19,5.19,0,0,1,0,6,3,3,0,0,1-2.44,1.14,2.94,2.94,0,0,1-1.88-.63,3,3,0,0,1-1.08-1.59h0v4.71h-.6v-10.6h.56v2.14h0a3.14,3.14,0,0,1,1.09-1.63,3,3,0,0,1,1.89-.64Zm-.07,7.7a2.5,2.5,0,0,0,2.06-1,4.64,4.64,0,0,0,0-5.18,2.5,2.5,0,0,0-2.06-1,2.58,2.58,0,0,0-2.09,1,4.51,4.51,0,0,0,0,5.16,2.55,2.55,0,0,0,2.09,1Zm10.71-.58a3.53,3.53,0,0,1-5.16,0,5.08,5.08,0,0,1,0-6,3.53,3.53,0,0,1,5.16,0,5.08,5.08,0,0,1,0,6Zm-4.73-.38a2.88,2.88,0,0,0,4.3,0,4.61,4.61,0,0,0,0-5.22,2.66,2.66,0,0,0-2.16-1,2.62,2.62,0,0,0-2.14,1,3.92,3.92,0,0,0-.81,2.61,4,4,0,0,0,.81,2.62Zm10.15-6.09h-2.34v3.08H185a2.19,2.19,0,0,0,1.44-.43,1.44,1.44,0,0,0,.52-1.17,1.3,1.3,0,0,0-.49-1.09,2.18,2.18,0,0,0-1.38-.39Zm-.05,3.59h-2.29v3.36h2.41a2.69,2.69,0,0,0,1.66-.44,1.52,1.52,0,0,0,.56-1.29,1.39,1.39,0,0,0-.62-1.22,3.12,3.12,0,0,0-1.72-.41ZM182.18,165v-8h3a2.72,2.72,0,0,1,1.77.52,1.75,1.75,0,0,1,.64,1.43,1.84,1.84,0,0,1-.41,1.22,1.82,1.82,0,0,1-1.1.64v0a2.31,2.31,0,0,1,1.38.58,1.75,1.75,0,0,1,.56,1.35,2,2,0,0,1-.73,1.65,3.28,3.28,0,0,1-2.06.57Zm9.74-.39a2.93,2.93,0,0,0,2-.75,2.36,2.36,0,0,0,.84-1.82v-1.18l-2.67.19a3.15,3.15,0,0,0-1.71.55,1.51,1.51,0,0,0-.6,1.26,1.53,1.53,0,0,0,.6,1.25,2.33,2.33,0,0,0,1.53.5Zm-.09.52a2.78,2.78,0,0,1-1.9-.64,2,2,0,0,1-.74-1.63,2,2,0,0,1,.72-1.61,3.74,3.74,0,0,1,2.11-.69l2.75-.19v-.72a2.2,2.2,0,0,0-.6-1.63,2.25,2.25,0,0,0-1.65-.59,2.69,2.69,0,0,0-1.68.5,2.24,2.24,0,0,0-.79,1.41h-.57a2.5,2.5,0,0,1,.93-1.78,3.28,3.28,0,0,1,2.12-.67,2.87,2.87,0,0,1,2.07.74,2.59,2.59,0,0,1,.77,2V165h-.58v-1.71h0a2.57,2.57,0,0,1-1.12,1.33,3.35,3.35,0,0,1-1.82.51Zm11-.13v-3.87h-5V165h-.6v-8h.6v3.59h5v-3.59h.59v8Zm3.1,0h-.59v-8h.59v7.06h0l5-7.06h.6v8H211V158h0l-5,7.05Zm10-3.73h2.14v-3.74H216a2.3,2.3,0,0,0-1.57.51,1.87,1.87,0,0,0,0,2.73,2.38,2.38,0,0,0,1.57.5Zm2.14,3.73v-3.21h-2l-2.4,3.21H213l2.46-3.28a2.6,2.6,0,0,1-1.63-.73,2.13,2.13,0,0,1-.6-1.56,2.24,2.24,0,0,1,.74-1.76,3,3,0,0,1,2-.65h2.73v8Z" transform="translate(-63.16 -39.85)"/><rect class="cls-3" x="84.81" y="80.79" width="17.22" height="6.21"/><polygon class="cls-1" points="0 0 32.37 0 32.37 6.21 5.7 6.21 5.7 22.79 0 22.79 0 0"/><polygon class="cls-2" points="102.03 0 175.57 0 175.57 22.79 169.87 22.79 169.87 6.21 102.03 6.21 102.03 0"/><rect class="cls-3" x="84.81" width="17.22" height="6.21"/><rect class="cls-4" x="32.37" width="52.44" height="6.21"/></svg>