<svg width="728" height="486" viewBox="0 0 728 486" fill="none" xmlns="http://www.w3.org/2000/svg">
<rect width="728" height="486" fill="white"/>
<path d="M406.792 189.125H322.208C315.535 189.125 310.125 194.535 310.125 201.208V285.792C310.125 292.465 315.535 297.875 322.208 297.875H406.792C413.465 297.875 418.875 292.465 418.875 285.792V201.208C418.875 194.535 413.465 189.125 406.792 189.125Z" stroke="#4B4B4B" stroke-width="4" stroke-linecap="round" stroke-linejoin="round"/>
<path d="M343.354 231.417C348.36 231.417 352.417 227.359 352.417 222.354C352.417 217.349 348.36 213.292 343.354 213.292C338.349 213.292 334.292 217.349 334.292 222.354C334.292 227.359 338.349 231.417 343.354 231.417Z" stroke="#4B4B4B" stroke-width="4" stroke-linecap="round" stroke-linejoin="round"/>
<path d="M418.875 261.625L388.666 231.417L322.208 297.875" stroke="#4B4B4B" stroke-width="4" stroke-linecap="round" stroke-linejoin="round"/>
</svg>
