<svg width="314" height="209" viewBox="0 0 314 209" fill="none" xmlns="http://www.w3.org/2000/svg">
<rect width="314" height="209" fill="white"/>
<path d="M189.083 63.75H124.917C119.854 63.75 115.75 67.8541 115.75 72.9167V137.083C115.75 142.146 119.854 146.25 124.917 146.25H189.083C194.146 146.25 198.25 142.146 198.25 137.083V72.9167C198.25 67.8541 194.146 63.75 189.083 63.75Z" stroke="#4B4B4B" stroke-width="4" stroke-linecap="round" stroke-linejoin="round"/>
<path d="M140.958 95.8334C144.755 95.8334 147.833 92.7553 147.833 88.9584C147.833 85.1614 144.755 82.0834 140.958 82.0834C137.161 82.0834 134.083 85.1614 134.083 88.9584C134.083 92.7553 137.161 95.8334 140.958 95.8334Z" stroke="#4B4B4B" stroke-width="4" stroke-linecap="round" stroke-linejoin="round"/>
<path d="M198.25 118.75L175.334 95.8334L124.917 146.25" stroke="#4B4B4B" stroke-width="4" stroke-linecap="round" stroke-linejoin="round"/>
</svg>
