<svg width="389" height="259" viewBox="0 0 389 259" fill="none" xmlns="http://www.w3.org/2000/svg">
<rect width="389" height="259" fill="white"/>
<path d="M217.006 100.648H172.054C168.508 100.648 165.633 103.528 165.633 107.08V152.105C165.633 155.657 168.508 158.537 172.054 158.537H217.006C220.553 158.537 223.428 155.657 223.428 152.105V107.08C223.428 103.528 220.553 100.648 217.006 100.648Z" stroke="#4B4B4B" stroke-width="4" stroke-linecap="round" stroke-linejoin="round"/>
<path d="M183.292 123.16C185.952 123.16 188.108 121.001 188.108 118.336C188.108 115.672 185.952 113.512 183.292 113.512C180.632 113.512 178.476 115.672 178.476 118.336C178.476 121.001 180.632 123.16 183.292 123.16Z" stroke="#4B4B4B" stroke-width="4" stroke-linecap="round" stroke-linejoin="round"/>
<path d="M223.428 139.241L207.374 123.161L172.054 158.537" stroke="#4B4B4B" stroke-width="4" stroke-linecap="round" stroke-linejoin="round"/>
</svg>
