<svg width="30" height="31" viewBox="0 0 30 31" fill="none" xmlns="http://www.w3.org/2000/svg">
<path d="M27.0443 0.133545H2.95567C1.3233 0.133545 0 1.47579 0 3.13154V27.5652C0 29.221 1.3233 30.5632 2.95567 30.5632H27.0443C28.6767 30.5632 30 29.221 30 27.5652V3.13154C30 1.47579 28.6767 0.133545 27.0443 0.133545Z" fill="#0BA3D7"/>
<path d="M15.0554 8.0849C17.4046 8.0849 17.6834 8.09449 18.6105 8.13642C19.468 8.17595 19.9334 8.32211 20.244 8.44431C20.6238 8.59345 20.9685 8.82169 21.256 9.11429C21.5434 9.40689 21.7672 9.75737 21.9129 10.1431C22.031 10.4582 22.1775 10.9302 22.2164 11.8C22.2578 12.7404 22.2672 13.0231 22.2672 15.406C22.2672 17.7889 22.2578 18.0704 22.2164 19.0108C22.1775 19.8806 22.0334 20.3526 21.9129 20.6677C21.7665 21.0523 21.5424 21.4016 21.255 21.6932C20.9676 21.9847 20.6232 22.212 20.244 22.3605C19.9334 22.4803 19.468 22.6288 18.6105 22.6684C17.6834 22.7103 17.4046 22.7199 15.0554 22.7199C12.7062 22.7199 12.4287 22.7103 11.5015 22.6684C10.644 22.6288 10.1787 22.4827 9.86802 22.3605C9.48883 22.212 9.14445 21.9847 8.85704 21.6932C8.56962 21.4016 8.34551 21.0523 8.19912 20.6677C8.08101 20.3526 7.93456 19.8806 7.89559 19.0108C7.85425 18.0704 7.84479 17.7877 7.84479 15.406C7.84479 13.0243 7.85425 12.7404 7.89559 11.8C7.93456 10.9302 8.07865 10.4582 8.19912 10.1431C8.34551 9.75847 8.56962 9.40917 8.85704 9.11763C9.14445 8.8261 9.48883 8.59878 9.86802 8.4503C10.1787 8.3305 10.644 8.18194 11.5015 8.14241C12.4287 8.10048 12.7074 8.0909 15.0554 8.0909V8.0849ZM15.0554 6.48315C12.6672 6.48315 12.3672 6.49394 11.4294 6.53707C10.6997 6.55179 9.9776 6.69195 9.29401 6.95158C8.70975 7.18086 8.17915 7.53139 7.73617 7.98071C7.2932 8.43003 6.94763 8.96824 6.72158 9.56086C6.46562 10.2542 6.32743 10.9866 6.31291 11.7269C6.27039 12.6781 6.25977 12.9824 6.25977 15.406C6.25977 17.8296 6.27039 18.1327 6.31291 19.0839C6.32743 19.8242 6.46562 20.5565 6.72158 21.2499C6.94763 21.8426 7.2932 22.3808 7.73617 22.8301C8.17915 23.2794 8.70975 23.6299 9.29401 23.8592C9.9776 24.1188 10.6997 24.259 11.4294 24.2737C12.3672 24.3169 12.6672 24.3276 15.0554 24.3276C17.4436 24.3276 17.7448 24.3169 18.6826 24.2737C19.4124 24.259 20.1344 24.1188 20.818 23.8592C21.4023 23.6299 21.9329 23.2794 22.3759 22.8301C22.8188 22.3808 23.1644 21.8426 23.3904 21.2499C23.6464 20.5565 23.7846 19.8242 23.7991 19.0839C23.8416 18.1327 23.8523 17.8284 23.8523 15.406C23.8523 12.9836 23.8416 12.6781 23.7991 11.7269C23.7846 10.9866 23.6464 10.2542 23.3904 9.56086C23.1644 8.96824 22.8188 8.43003 22.3759 7.98071C21.9329 7.53139 21.4023 7.18086 20.818 6.95158C20.1344 6.69195 19.4124 6.55179 18.6826 6.53707C17.7448 6.49394 17.4448 6.48315 15.0554 6.48315Z" fill="white"/>
<path d="M15.0558 10.8174C14.1623 10.8174 13.2888 11.0862 12.5459 11.5897C11.803 12.0933 11.2239 12.809 10.882 13.6464C10.54 14.4838 10.4506 15.4052 10.6249 16.2942C10.7992 17.1832 11.2295 17.9997 11.8613 18.6406C12.4931 19.2816 13.2981 19.718 14.1744 19.8949C15.0508 20.0717 15.9592 19.9809 16.7847 19.6341C17.6102 19.2872 18.3157 18.6998 18.8121 17.9462C19.3086 17.1926 19.5735 16.3065 19.5735 15.4001C19.5737 14.7983 19.4569 14.2023 19.2299 13.6462C19.003 13.0901 18.6702 12.5849 18.2507 12.1593C17.8311 11.7337 17.333 11.3962 16.7848 11.1659C16.2367 10.9357 15.6491 10.8172 15.0558 10.8174ZM15.0558 18.3738C14.4757 18.3738 13.9087 18.1993 13.4264 17.8724C12.9441 17.5455 12.5682 17.0808 12.3462 16.5371C12.1243 15.9935 12.0663 15.3952 12.1796 14.8181C12.2928 14.241 12.5722 13.711 12.9825 13.295C13.3928 12.879 13.9154 12.5957 14.4844 12.4811C15.0533 12.3664 15.643 12.4255 16.1789 12.6508C16.7148 12.8762 17.1727 13.2577 17.4948 13.7471C17.8169 14.2364 17.9887 14.8117 17.9885 15.4001C17.9885 15.7908 17.9126 16.1775 17.7652 16.5384C17.6178 16.8993 17.4018 17.2271 17.1294 17.5033C16.8571 17.7794 16.5338 17.9985 16.178 18.1478C15.8222 18.2972 15.4409 18.374 15.0558 18.3738Z" fill="white"/>
<path d="M19.7512 11.7078C20.3344 11.7078 20.8071 11.2282 20.8071 10.6367C20.8071 10.0452 20.3344 9.56567 19.7512 9.56567C19.1681 9.56567 18.6953 10.0452 18.6953 10.6367C18.6953 11.2282 19.1681 11.7078 19.7512 11.7078Z" fill="white"/>
</svg>
