<?xml version="1.0" encoding="utf-8"?>
<!-- Generator: Adobe Illustrator 18.0.0, SVG Export Plug-In . SVG Version: 6.00 Build 0)  -->
<!DOCTYPE svg PUBLIC "-//W3C//DTD SVG 1.1//EN" "http://www.w3.org/Graphics/SVG/1.1/DTD/svg11.dtd">
<svg version="1.1" id="Layer_1" xmlns="http://www.w3.org/2000/svg" xmlns:xlink="http://www.w3.org/1999/xlink" x="0px" y="0px"
	 viewBox="0 0 40.9 40.4" enable-background="new 0 0 40.9 40.4" xml:space="preserve">
<g id="XMLID_2116_">
	<path id="XMLID_2123_" fill="none" stroke="#2DABE2" stroke-width="1.5" stroke-miterlimit="10" d="M20.5,39.3L20.5,39.3
		c-10.5,0-19-8.5-19-19v0c0-10.5,8.5-19,19-19l0,0c10.5,0,19,8.5,19,19v0C39.6,30.8,31.1,39.3,20.5,39.3z"/>
	<g id="XMLID_2117_">
		<path id="XMLID_2121_" fill="#2DABE2" d="M35.1,12.9c-0.4-1.3-1.4-2.4-2.7-2.7c-2.4-0.6-11.9-0.6-11.9-0.6s-9.5,0-11.9,0.6
			c-1.3,0.4-2.3,1.4-2.7,2.7c-0.6,2.4-0.6,7.4-0.6,7.4s0,5,0.6,7.4C6.3,29,7.3,30,8.6,30.4C11,31,20.5,31,20.5,31s9.5,0,11.9-0.6
			c1.3-0.4,2.3-1.4,2.7-2.7c0.6-2.4,0.6-7.4,0.6-7.4S35.8,15.3,35.1,12.9z"/>
		<polygon id="XMLID_2118_" fill="#FFFFFF" points="17.4,24.8 17.4,15.8 25.4,20.3 		"/>
	</g>
</g>
</svg>
