<svg width="118" height="32" viewBox="0 0 118 32" fill="none" xmlns="http://www.w3.org/2000/svg">
<path d="M28.8643 6.02393C29.6297 6.97617 30.2778 8.01071 30.7952 9.10676L16.1172 19.5181L9.98291 15.8179V11.3665L16.1172 15.0666L28.8643 6.02393Z" fill="#21A038"/>
<path d="M3.72263 15.5041C3.72263 15.3044 3.72769 15.106 3.73782 14.9087L0.0202465 14.7334C0.00759314 14.9891 4.49251e-06 15.2472 4.49251e-06 15.5077C-0.00157723 17.5434 0.414526 19.5591 1.22446 21.4396C2.03438 23.3201 3.22218 25.0281 4.71972 26.4658L7.35669 23.9297C6.20394 22.8249 5.28945 21.5118 4.66579 20.0659C4.04214 18.6199 3.72161 17.0696 3.72263 15.5041Z" fill="url(#paint0_linear)"/>
<path d="M16.1141 3.58083C16.3216 3.58083 16.5278 3.58814 16.7328 3.59788L16.9188 0.0192518C16.6523 0.00707549 16.384 0.000988063 16.1141 0.000988063C13.9977 -0.00149561 11.9016 0.398342 9.94625 1.17754C7.99087 1.95674 6.2147 3.09996 4.71973 4.54155L7.35669 7.0791C8.50484 5.96944 9.86961 5.08912 11.3725 4.48876C12.8755 3.88841 14.4868 3.57985 16.1141 3.58083Z" fill="url(#paint1_linear)"/>
<path d="M16.1141 27.4277C15.9066 27.4277 15.7003 27.4277 15.4941 27.4118L15.3081 30.9893C15.5755 31.0022 15.8442 31.0088 16.1141 31.0088C18.2297 31.0109 20.3247 30.6108 22.2791 29.8314C24.2334 29.0519 26.0084 27.9085 27.5023 26.467L24.8703 23.9307C23.722 25.0397 22.3573 25.9196 20.8547 26.5197C19.3521 27.1198 17.741 27.4284 16.1141 27.4277Z" fill="url(#paint2_linear)"/>
<path d="M23.0987 5.66113L26.2316 3.4393C23.3681 1.20829 19.7936 -0.00619305 16.1089 2.37492e-05V3.58052C18.604 3.57754 21.0412 4.30304 23.0987 5.66113Z" fill="url(#paint3_linear)"/>
<path d="M32.2272 15.504C32.2292 14.5725 32.1445 13.6426 31.9741 12.7256L28.5058 15.185C28.5058 15.2909 28.5058 15.3968 28.5058 15.504C28.5067 17.1699 28.1438 18.8174 27.4407 20.3396C26.7374 21.8619 25.7096 23.225 24.4238 24.3406L26.9254 27.001C28.597 25.5489 29.9328 23.7752 30.8461 21.7946C31.7595 19.814 32.23 17.6708 32.2272 15.504Z" fill="#21A038"/>
<path d="M16.1142 27.4267C14.3827 27.4273 12.6704 27.0779 11.0881 26.4014C9.50586 25.7248 8.08891 24.7359 6.92903 23.499L4.16553 25.9048C5.6744 27.5134 7.51781 28.7989 9.57624 29.678C11.6347 30.5569 13.8621 31.0099 16.1142 31.0073V27.4267Z" fill="url(#paint4_linear)"/>
<path d="M7.80463 6.66713L5.30431 4.00684C3.63226 5.45858 2.296 7.23229 1.38221 9.21293C0.468422 11.1935 -0.0024913 13.3369 9.91159e-06 15.5039H3.72264C3.72187 13.8381 4.08485 12.1906 4.78804 10.6683C5.49123 9.14601 6.51895 7.78284 7.80463 6.66713Z" fill="url(#paint5_linear)"/>
<path d="M93.0323 8.96432L97.6428 5.73291H82.2124V25.1509H97.6428V21.9195H86.6153V16.9455H96.0223V13.7141H86.6153V8.96432H93.0323Z" fill="#21A038"/>
<path d="M71.8297 13.2983H66.4726V8.96389H75.0223L79.6301 5.72266H62.0723V25.1406H71.263C76.4158 25.1406 79.3731 22.9189 79.3731 19.0441C79.3731 15.3373 76.6945 13.2983 71.8297 13.2983ZM71.0648 21.9082H66.4726V16.5277H71.0648C73.8518 16.5277 75.1585 17.4294 75.1585 19.218C75.1585 21.0065 73.7682 21.9082 71.0648 21.9082Z" fill="#21A038"/>
<path d="M108.985 5.73047H100.586V25.1479H104.988V19.6473H108.985C114.344 19.6473 117.659 16.9648 117.659 12.6785C117.659 8.39239 114.344 5.73047 108.985 5.73047ZM108.892 16.4135H104.988V8.96427H108.892C111.711 8.96427 113.267 10.2879 113.267 12.6904C113.267 15.0929 111.711 16.4135 108.892 16.4135Z" fill="#21A038"/>
<path d="M55.4656 20.775C54.3283 21.3609 53.0542 21.6642 51.761 21.657C47.8905 21.657 45.0826 19.0284 45.0826 15.4086C45.0826 11.7888 47.8905 9.15443 51.761 9.15443C53.1568 9.13188 54.5236 9.53452 55.6618 10.3036L58.7414 8.14606L58.5331 8.0053C56.7367 6.5028 54.3364 5.70703 51.589 5.70703C48.609 5.70703 45.9069 6.66081 43.9776 8.396C43.0021 9.28943 42.2306 10.3646 41.7111 11.5543C41.1917 12.744 40.9354 14.0228 40.9585 15.3109C40.9378 16.6121 41.1929 17.9039 41.7085 19.1093C42.2241 20.3147 42.9897 21.4088 43.9595 22.3264C45.8978 24.1305 48.5939 25.1245 51.5527 25.1245C54.6444 25.1245 57.3466 24.0989 59.1762 22.2316L56.4197 20.2781L55.4656 20.775Z" fill="#21A038"/>
<defs>
<linearGradient id="paint0_linear" x1="5.4726" y1="26.019" x2="1.67705" y2="14.6163" gradientUnits="userSpaceOnUse">
<stop offset="0.14" stop-color="#F1E813"/>
<stop offset="0.3" stop-color="#E6E418"/>
<stop offset="0.58" stop-color="#C9DA26"/>
<stop offset="0.89" stop-color="#A2CC39"/>
</linearGradient>
<linearGradient id="paint1_linear" x1="5.78261" y1="5.17472" x2="16.1532" y2="1.06778" gradientUnits="userSpaceOnUse">
<stop offset="0.06" stop-color="#0FA7DF"/>
<stop offset="0.54" stop-color="#0098F8"/>
<stop offset="0.92" stop-color="#0290EA"/>
</linearGradient>
<linearGradient id="paint2_linear" x1="15.0627" y1="28.8474" x2="26.863" y2="26.0772" gradientUnits="userSpaceOnUse">
<stop offset="0.12" stop-color="#A2CC39"/>
<stop offset="0.28" stop-color="#86C239"/>
<stop offset="0.87" stop-color="#219F38"/>
</linearGradient>
<linearGradient id="paint3_linear" x1="15.3346" y1="1.1992" x2="25.3921" y2="4.42503" gradientUnits="userSpaceOnUse">
<stop offset="0.06" stop-color="#0290EA"/>
<stop offset="0.79" stop-color="#0C89CA"/>
</linearGradient>
<linearGradient id="paint4_linear" x1="5.09935" y1="25.4689" x2="16.0159" y2="29.7091" gradientUnits="userSpaceOnUse">
<stop offset="0.13" stop-color="#F1E813"/>
<stop offset="0.3" stop-color="#EAE616"/>
<stop offset="0.53" stop-color="#D8DF1F"/>
<stop offset="0.8" stop-color="#BAD52D"/>
<stop offset="0.98" stop-color="#A2CC39"/>
</linearGradient>
<linearGradient id="paint5_linear" x1="1.38682" y1="15.9373" x2="5.52311" y2="4.75479" gradientUnits="userSpaceOnUse">
<stop offset="0.07" stop-color="#A2CC39"/>
<stop offset="0.26" stop-color="#81C45E"/>
<stop offset="0.92" stop-color="#0FA7DF"/>
</linearGradient>
</defs>
</svg>
