<svg width="201" height="54" viewBox="0 0 201 54" fill="none" xmlns="http://www.w3.org/2000/svg">
<path d="M49.1201 10.3817C50.4227 12.0227 51.5255 13.8055 52.406 15.6944L27.4277 33.6363L16.9886 27.2598V19.5887L27.4277 25.9651L49.1201 10.3817Z" fill="#21A038"/>
<path d="M6.33501 26.7191C6.33501 26.3749 6.34362 26.0329 6.36085 25.6929L0.0344546 25.3909C0.0129217 25.8315 7.64515e-06 26.2763 7.64515e-06 26.7253C-0.00268406 30.2332 0.705422 33.707 2.08372 36.9475C3.46201 40.1882 5.48336 43.1316 8.03181 45.6092L12.5193 41.2386C10.5576 39.3349 9.00135 37.072 7.94004 34.5802C6.87873 32.0885 6.33327 29.4169 6.33501 26.7191Z" fill="url(#paint0_linear)"/>
<path d="M27.4224 6.17166C27.7754 6.17166 28.1263 6.18426 28.4752 6.20104L28.7917 0.0344212C28.3382 0.0134392 27.8816 0.0029495 27.4224 0.0029495C23.8206 -0.00133032 20.2537 0.687662 16.9261 2.03036C13.5985 3.37307 10.5759 5.34304 8.03186 7.82716L12.5193 12.1998C14.4732 10.2877 16.7957 8.77071 19.3533 7.73619C21.9109 6.70167 24.653 6.16996 27.4224 6.17166Z" fill="url(#paint1_linear)"/>
<path d="M27.4225 47.2667C27.0694 47.2667 26.7183 47.2667 26.3675 47.2394L26.0509 53.4042C26.5059 53.4265 26.9632 53.4378 27.4225 53.4378C31.0227 53.4414 34.5879 52.752 37.9138 51.4088C41.2396 50.0657 44.2602 48.0954 46.8024 45.6112L42.3235 41.2405C40.3692 43.1517 38.047 44.6679 35.4899 45.7021C32.9328 46.7362 30.1911 47.268 27.4225 47.2667Z" fill="url(#paint2_linear)"/>
<path d="M39.3084 9.75642L44.6399 5.9273C39.7668 2.08236 33.6839 -0.0106731 27.4135 4.09295e-05V6.17068C31.6595 6.16555 35.807 7.41587 39.3084 9.75642Z" fill="url(#paint3_linear)"/>
<path d="M54.8428 26.7185C54.8462 25.1132 54.7021 23.5107 54.412 21.9304L48.5099 26.1688C48.5099 26.3514 48.5099 26.5339 48.5099 26.7185C48.5115 29.5894 47.8938 32.4287 46.6973 35.0521C45.5005 37.6755 43.7514 40.0247 41.5634 41.9472L45.8205 46.5319C48.6651 44.0295 50.9382 40.9727 52.4925 37.5595C54.0469 34.1462 54.8475 30.4527 54.8428 26.7185Z" fill="#21A038"/>
<path d="M27.4224 47.2657C24.4759 47.2667 21.5619 46.6647 18.8692 45.4987C16.1767 44.3327 13.7654 42.6285 11.7916 40.4968L7.08875 44.6429C9.65647 47.4152 12.7935 49.6306 16.2965 51.1455C19.7994 52.6603 23.5899 53.4409 27.4224 53.4365V47.2657Z" fill="url(#paint4_linear)"/>
<path d="M13.2816 11.4901L9.02664 6.90546C6.18121 9.40735 3.90723 12.4641 2.35217 15.8774C0.79714 19.2908 -0.00423957 22.9845 1.68671e-05 26.7191H6.33502C6.33371 23.8483 6.95141 21.009 8.14806 18.3855C9.34473 15.7621 11.0937 13.4129 13.2816 11.4901Z" fill="url(#paint5_linear)"/>
<path d="M158.318 15.4481L166.164 9.87939H139.905V43.3424H166.164V37.7737H147.398V29.2021H163.406V23.6334H147.398V15.4481H158.318Z" fill="#21A038"/>
<path d="M122.236 22.9169H113.12V15.4474H127.669L135.51 9.86176H105.631V43.3247H121.272C130.041 43.3247 135.073 39.496 135.073 32.8187C135.073 26.4307 130.515 22.9169 122.236 22.9169ZM120.935 37.7543H113.12V28.4821H120.935C125.677 28.4821 127.901 30.036 127.901 33.1183C127.901 36.2005 125.535 37.7543 120.935 37.7543Z" fill="#21A038"/>
<path d="M185.466 9.87482H171.173V43.3378H178.664V33.8583H185.466C194.586 33.8583 200.227 29.2354 200.227 21.8487C200.227 14.4622 194.586 9.87482 185.466 9.87482ZM185.308 28.2854H178.664V15.4478H185.308C190.105 15.4478 192.752 17.7288 192.752 21.8691C192.752 26.0095 190.105 28.2854 185.308 28.2854Z" fill="#21A038"/>
<path d="M94.3889 35.8027C92.4535 36.8124 90.2852 37.3351 88.0846 37.3227C81.4979 37.3227 76.7196 32.7926 76.7196 26.5546C76.7196 20.3164 81.4979 15.7764 88.0846 15.7764C90.4599 15.7376 92.7859 16.4315 94.7228 17.7569L99.9634 14.0387L99.609 13.7961C96.552 11.2068 92.4673 9.83539 87.7918 9.83539C82.7206 9.83539 78.1223 11.4791 74.8391 14.4694C73.179 16.0091 71.8662 17.8619 70.9821 19.9122C70.0982 21.9625 69.662 24.1662 69.7013 26.3861C69.6661 28.6286 70.1003 30.8548 70.9777 32.9321C71.8552 35.0094 73.1579 36.8949 74.8084 38.4763C78.1068 41.5854 82.695 43.2984 87.7301 43.2984C92.9913 43.2984 97.5898 41.5309 100.703 38.3129L96.0125 34.9463L94.3889 35.8027Z" fill="#21A038"/>
<defs>
<linearGradient id="paint0_linear" x1="9.31303" y1="44.8392" x2="2.70624" y2="25.2389" gradientUnits="userSpaceOnUse">
<stop offset="0.14" stop-color="#F1E813"/>
<stop offset="0.3" stop-color="#E6E418"/>
<stop offset="0.58" stop-color="#C9DA26"/>
<stop offset="0.89" stop-color="#A2CC39"/>
</linearGradient>
<linearGradient id="paint1_linear" x1="9.84062" y1="8.91822" x2="27.5482" y2="1.99291" gradientUnits="userSpaceOnUse">
<stop offset="0.06" stop-color="#0FA7DF"/>
<stop offset="0.54" stop-color="#0098F8"/>
<stop offset="0.92" stop-color="#0290EA"/>
</linearGradient>
<linearGradient id="paint2_linear" x1="25.6332" y1="49.7133" x2="45.7405" y2="45.0517" gradientUnits="userSpaceOnUse">
<stop offset="0.12" stop-color="#A2CC39"/>
<stop offset="0.28" stop-color="#86C239"/>
<stop offset="0.87" stop-color="#219F38"/>
</linearGradient>
<linearGradient id="paint3_linear" x1="26.0957" y1="2.06671" x2="43.2512" y2="7.49998" gradientUnits="userSpaceOnUse">
<stop offset="0.06" stop-color="#0290EA"/>
<stop offset="0.79" stop-color="#0C89CA"/>
</linearGradient>
<linearGradient id="paint4_linear" x1="8.67788" y1="43.8917" x2="27.3161" y2="51.0403" gradientUnits="userSpaceOnUse">
<stop offset="0.13" stop-color="#F1E813"/>
<stop offset="0.3" stop-color="#EAE616"/>
<stop offset="0.53" stop-color="#D8DF1F"/>
<stop offset="0.8" stop-color="#BAD52D"/>
<stop offset="0.98" stop-color="#A2CC39"/>
</linearGradient>
<linearGradient id="paint5_linear" x1="2.36003" y1="27.466" x2="9.55675" y2="8.25356" gradientUnits="userSpaceOnUse">
<stop offset="0.07" stop-color="#A2CC39"/>
<stop offset="0.26" stop-color="#81C45E"/>
<stop offset="0.92" stop-color="#0FA7DF"/>
</linearGradient>
</defs>
</svg>
