<svg width="237" height="97" viewBox="0 0 237 97" fill="none" xmlns="http://www.w3.org/2000/svg">
<path d="M49.1201 10.3817C50.4227 12.0227 51.5255 13.8055 52.406 15.6944L27.4277 33.6363L16.9886 27.2598V19.5887L27.4277 25.9651L49.1201 10.3817Z" fill="#21A038"/>
<path d="M6.33501 26.7191C6.33501 26.3749 6.34362 26.0329 6.36085 25.6929L0.0344546 25.3909C0.0129217 25.8315 7.64515e-06 26.2763 7.64515e-06 26.7253C-0.00268406 30.2332 0.705422 33.707 2.08372 36.9475C3.46201 40.1882 5.48336 43.1316 8.03181 45.6092L12.5193 41.2386C10.5576 39.3349 9.00135 37.072 7.94004 34.5802C6.87873 32.0885 6.33327 29.4169 6.33501 26.7191Z" fill="url(#paint0_linear)"/>
<path d="M27.4224 6.17163C27.7755 6.17163 28.1264 6.18423 28.4752 6.201L28.7918 0.0343907C28.3383 0.0134087 27.8817 0.00291899 27.4224 0.00291899C23.8207 -0.00136083 20.2538 0.687632 16.9262 2.03033C13.5986 3.37304 10.576 5.34301 8.03192 7.82713L12.5194 12.1998C14.4733 10.2876 16.7958 8.77068 19.3534 7.73616C21.911 6.70164 24.6531 6.16993 27.4224 6.17163Z" fill="url(#paint1_linear)"/>
<path d="M27.4224 47.2667C27.0693 47.2667 26.7183 47.2667 26.3674 47.2394L26.0508 53.4042C26.5059 53.4265 26.9631 53.4378 27.4224 53.4378C31.0227 53.4414 34.5879 52.752 37.9137 51.4088C41.2395 50.0657 44.2601 48.0954 46.8023 45.6112L42.3234 41.2405C40.3692 43.1517 38.0469 44.6679 35.4898 45.7021C32.9327 46.7362 30.1911 47.268 27.4224 47.2667Z" fill="url(#paint2_linear)"/>
<path d="M39.3084 9.75642L44.6399 5.9273C39.7668 2.08236 33.6839 -0.0106731 27.4135 4.09295e-05V6.17068C31.6595 6.16555 35.807 7.41587 39.3084 9.75642Z" fill="url(#paint3_linear)"/>
<path d="M54.8428 26.7185C54.8462 25.1133 54.7021 23.5107 54.412 21.9305L48.5099 26.1688C48.5099 26.3514 48.5099 26.5339 48.5099 26.7185C48.5115 29.5895 47.8938 32.4287 46.6973 35.0521C45.5005 37.6756 43.7514 40.0247 41.5634 41.9472L45.8205 46.5319C48.6651 44.0296 50.9382 40.9727 52.4925 37.5596C54.0469 34.1462 54.8475 30.4527 54.8428 26.7185Z" fill="#21A038"/>
<path d="M27.4224 47.2658C24.4758 47.2667 21.5619 46.6647 18.8692 45.4987C16.1766 44.3327 13.7653 42.6286 11.7915 40.4969L7.08868 44.643C9.65641 47.4153 12.7935 49.6306 16.2964 51.1456C19.7993 52.6604 23.5899 53.441 27.4224 53.4366V47.2658Z" fill="url(#paint4_linear)"/>
<path d="M13.2816 11.4901L9.02664 6.90549C6.18121 9.40738 3.90723 12.4641 2.35217 15.8775C0.79714 19.2908 -0.00423957 22.9845 1.68671e-05 26.7191H6.33502C6.33371 23.8483 6.95141 21.009 8.14806 18.3855C9.34473 15.7621 11.0937 13.4129 13.2816 11.4901Z" fill="url(#paint5_linear)"/>
<path d="M158.318 15.4481L166.164 9.87936H139.905V43.3424H166.164V37.7737H147.398V29.2021H163.406V23.6334H147.398V15.4481H158.318Z" fill="#21A038"/>
<path d="M122.236 22.9169H113.12V15.4473H127.669L135.51 9.86172H105.631V43.3247H121.272C130.041 43.3247 135.073 39.496 135.073 32.8186C135.073 26.4307 130.515 22.9169 122.236 22.9169ZM120.935 37.7542H113.12V28.4821H120.935C125.677 28.4821 127.901 30.0359 127.901 33.1183C127.901 36.2004 125.535 37.7542 120.935 37.7542Z" fill="#21A038"/>
<path d="M185.466 9.87479H171.173V43.3378H178.664V33.8583H185.466C194.586 33.8583 200.227 29.2354 200.227 21.8487C200.227 14.4622 194.586 9.87479 185.466 9.87479ZM185.308 28.2854H178.664V15.4477H185.308C190.105 15.4477 192.752 17.7288 192.752 21.8691C192.752 26.0094 190.105 28.2854 185.308 28.2854Z" fill="#21A038"/>
<path d="M94.3889 35.8027C92.4535 36.8123 90.2852 37.3351 88.0846 37.3227C81.4979 37.3227 76.7196 32.7926 76.7196 26.5546C76.7196 20.3164 81.4979 15.7764 88.0846 15.7764C90.4599 15.7376 92.7859 16.4314 94.7228 17.7568L99.9634 14.0386L99.609 13.7961C96.552 11.2067 92.4673 9.83536 87.7918 9.83536C82.7206 9.83536 78.1223 11.479 74.8391 14.4694C73.179 16.0091 71.8662 17.8619 70.9821 19.9122C70.0982 21.9625 69.662 24.1662 69.7013 26.3861C69.6661 28.6286 70.1003 30.8548 70.9777 32.9321C71.8552 35.0094 73.1579 36.8948 74.8084 38.4763C78.1068 41.5854 82.695 43.2983 87.7301 43.2983C92.9913 43.2983 97.5898 41.5308 100.703 38.3129L96.0125 34.9463L94.3889 35.8027Z" fill="#21A038"/>
<path d="M77.366 97H71.4736V62.9649H77.366V77.2581H82.3199L92.924 62.9649H100.08L87.494 79.1491L102.105 96.9943H94.5643L82.5924 82.261H77.3633L77.366 97Z" fill="#003B85"/>
<path d="M102.108 79.9399C102.08 77.602 102.509 75.2808 103.372 73.1039C104.177 71.0827 105.403 69.2517 106.97 67.7298C108.58 66.1884 110.494 64.9924 112.593 64.2168C114.955 63.3557 117.457 62.9321 119.974 62.9669C122.462 62.9378 124.937 63.3365 127.288 64.1452C129.388 64.8666 131.312 66.0155 132.935 67.5178C134.519 69.0204 135.754 70.8457 136.554 72.8671C137.443 75.1494 137.879 77.5797 137.84 80.0252C137.867 82.3631 137.438 84.6843 136.576 86.8612C135.771 88.8828 134.546 90.7147 132.98 92.238C131.363 93.7835 129.439 94.979 127.33 95.7483C124.974 96.6077 122.479 97.0313 119.968 96.9982C117.481 97.027 115.006 96.6369 112.651 95.8446C110.549 95.1384 108.624 93.9971 107.004 92.4968C105.416 90.9867 104.181 89.1516 103.385 87.12C102.5 84.8292 102.067 82.392 102.108 79.9399ZM108.398 79.9867C108.388 81.5256 108.638 83.0555 109.138 84.5128C109.606 85.8823 110.365 87.1366 111.365 88.191C112.393 89.2589 113.635 90.1028 115.011 90.6688C118.167 91.8698 121.657 91.8952 124.831 90.7404C126.189 90.2099 127.421 89.4065 128.449 88.3809C129.474 87.34 130.263 86.0944 130.762 84.7275C131.317 83.2091 131.592 81.6041 131.572 79.9894C131.582 78.4504 131.331 76.9207 130.831 75.4633C130.363 74.0941 129.604 72.8399 128.605 71.7851C127.576 70.7181 126.334 69.8743 124.959 69.3073C121.794 68.1092 118.298 68.0847 115.117 69.2385C113.745 69.7596 112.504 70.5691 111.48 71.611C110.455 72.653 109.672 73.9025 109.183 75.2733C108.643 76.7864 108.377 78.3821 108.398 79.9867Z" fill="#003B85"/>
<path d="M150.473 86.4007V97H144.649V62.9649H155.502C160.655 62.9649 164.389 63.9293 166.705 65.8582C169.021 67.787 170.177 70.6633 170.176 74.4869C170.176 78.4733 168.933 81.4556 166.449 83.4337C163.965 85.4117 160.316 86.4007 155.502 86.4007H150.473ZM150.473 68.5556V80.8073H155.912C158.643 80.8073 160.692 80.3132 162.059 79.3252C163.427 78.3371 164.11 76.676 164.11 74.3421C164.11 72.2353 163.476 70.7437 162.206 69.8673C160.937 68.9909 158.873 68.5537 156.013 68.5556H150.473Z" fill="#003B85"/>
<path d="M183.302 91.3357C183.895 91.345 184.48 91.196 185 90.9033C185.585 90.5192 186.045 89.9671 186.323 89.3166L171.877 62.9649H178.724L189.341 82.4872L198.026 62.9649H204.211L192.083 89.6059C191.534 90.8765 190.87 92.0921 190.099 93.2368C189.528 94.0782 188.846 94.8344 188.07 95.4833C187.435 96.0135 186.706 96.414 185.923 96.6628C185.148 96.8924 184.345 97.0059 183.539 96.9998C182.816 97.0031 182.096 96.922 181.392 96.7583C180.819 96.6312 180.259 96.4546 179.716 96.2303V89.9822C180.183 90.4137 180.728 90.7485 181.32 90.9678C181.954 91.2105 182.625 91.3351 183.302 91.3357Z" fill="#003B85"/>
<path d="M236.52 92.8499C236.036 93.4295 235.47 93.9306 234.839 94.3363C234.035 94.8658 233.179 95.3077 232.285 95.6548C229.992 96.5526 227.556 97.008 225.101 96.9981C222.659 97.0307 220.229 96.6322 217.919 95.82C215.881 95.0965 214.011 93.9473 212.429 92.4452C210.883 90.9453 209.673 89.1195 208.883 87.0941C208.008 84.8161 207.577 82.3846 207.616 79.9371C207.59 77.5976 208.012 75.2755 208.859 73.1022C209.658 71.0754 210.866 69.2444 212.405 67.729C214 66.1829 215.888 64.9876 217.952 64.2166C220.278 63.3554 222.738 62.932 225.211 62.9669C227.756 62.9669 229.935 63.289 231.747 63.9331C233.559 64.5772 234.941 65.2452 235.893 65.937V74.14C234.769 72.5201 233.315 71.1688 231.632 70.1789C230.687 69.6277 229.683 69.1925 228.639 68.8824C227.525 68.5508 226.371 68.3848 225.211 68.3897C223.592 68.3652 221.983 68.6528 220.468 69.2375C219.124 69.758 217.9 70.5606 216.876 71.5938C215.876 72.6306 215.106 73.8767 214.62 75.2466C214.084 76.7648 213.819 78.3695 213.838 79.9839C213.826 81.5154 214.067 83.0379 214.551 84.4873C215.001 85.8669 215.739 87.1297 216.714 88.1878C217.689 89.2459 218.878 90.074 220.197 90.6147C221.747 91.2555 223.404 91.5836 225.077 91.5809C226.388 91.5934 227.695 91.4352 228.967 91.1102C230.089 90.82 231.172 90.3921 232.194 89.8357C233.125 89.3288 233.984 88.6944 234.748 87.9501C235.459 87.262 236.065 86.4675 236.544 85.5938L236.52 92.8499Z" fill="#003B85"/>
<defs>
<linearGradient id="paint0_linear" x1="9.31303" y1="44.8392" x2="2.70624" y2="25.2389" gradientUnits="userSpaceOnUse">
<stop offset="0.14" stop-color="#F1E813"/>
<stop offset="0.3" stop-color="#E6E418"/>
<stop offset="0.58" stop-color="#C9DA26"/>
<stop offset="0.89" stop-color="#A2CC39"/>
</linearGradient>
<linearGradient id="paint1_linear" x1="9.84068" y1="8.91819" x2="27.5483" y2="1.99288" gradientUnits="userSpaceOnUse">
<stop offset="0.06" stop-color="#0FA7DF"/>
<stop offset="0.54" stop-color="#0098F8"/>
<stop offset="0.92" stop-color="#0290EA"/>
</linearGradient>
<linearGradient id="paint2_linear" x1="25.6332" y1="49.7133" x2="45.7404" y2="45.0517" gradientUnits="userSpaceOnUse">
<stop offset="0.12" stop-color="#A2CC39"/>
<stop offset="0.28" stop-color="#86C239"/>
<stop offset="0.87" stop-color="#219F38"/>
</linearGradient>
<linearGradient id="paint3_linear" x1="26.0957" y1="2.06671" x2="43.2512" y2="7.49998" gradientUnits="userSpaceOnUse">
<stop offset="0.06" stop-color="#0290EA"/>
<stop offset="0.79" stop-color="#0C89CA"/>
</linearGradient>
<linearGradient id="paint4_linear" x1="8.67782" y1="43.8918" x2="27.316" y2="51.0404" gradientUnits="userSpaceOnUse">
<stop offset="0.13" stop-color="#F1E813"/>
<stop offset="0.3" stop-color="#EAE616"/>
<stop offset="0.53" stop-color="#D8DF1F"/>
<stop offset="0.8" stop-color="#BAD52D"/>
<stop offset="0.98" stop-color="#A2CC39"/>
</linearGradient>
<linearGradient id="paint5_linear" x1="2.36003" y1="27.4661" x2="9.55675" y2="8.25359" gradientUnits="userSpaceOnUse">
<stop offset="0.07" stop-color="#A2CC39"/>
<stop offset="0.26" stop-color="#81C45E"/>
<stop offset="0.92" stop-color="#0FA7DF"/>
</linearGradient>
</defs>
</svg>
