<svg width="506" height="338" viewBox="0 0 506 338" fill="none" xmlns="http://www.w3.org/2000/svg">
<rect width="506" height="338" fill="white"/>
<path d="M282.752 131.646H224.034C219.401 131.646 215.646 135.402 215.646 140.035V198.753C215.646 203.386 219.401 207.141 224.034 207.141H282.752C287.385 207.141 291.14 203.386 291.14 198.753V140.035C291.14 135.402 287.385 131.646 282.752 131.646Z" stroke="#4B4B4B" stroke-width="4" stroke-linecap="round" stroke-linejoin="round"/>
<path d="M238.713 161.006C242.188 161.006 245.004 158.19 245.004 154.715C245.004 151.241 242.188 148.424 238.713 148.424C235.239 148.424 232.422 151.241 232.422 154.715C232.422 158.19 235.239 161.006 238.713 161.006Z" stroke="#4B4B4B" stroke-width="4" stroke-linecap="round" stroke-linejoin="round"/>
<path d="M291.14 181.977L270.169 161.006L224.034 207.141" stroke="#4B4B4B" stroke-width="4" stroke-linecap="round" stroke-linejoin="round"/>
</svg>
